<?xml version="1.0" encoding="UTF-8"?>
<!-- Generator: Adobe Illustrator 27.0.0, SVG Export Plug-In . SVG Version: 6.00 Build 0)  -->
<svg xmlns="http://www.w3.org/2000/svg" xmlns:xlink="http://www.w3.org/1999/xlink" version="1.1" x="0px" y="0px" viewBox="0 0 600 600" style="enable-background:new 0 0 600 600;" xml:space="preserve">
<style type="text/css">
	.st0{fill:#CDDAF0;stroke:#000000;stroke-width:5.2659;stroke-miterlimit:10;}
	.st1{fill:url(#SVGID_1_);stroke:#000000;stroke-width:4;stroke-miterlimit:10;}
	.st2{fill:#27276F;}
	.st3{opacity:0.3;}
	.st4{fill:#1B1967;}
	.st5{opacity:0.3;fill:#1B1967;}
	.st6{fill:#61A2A1;stroke:#1B1967;stroke-width:4;stroke-miterlimit:10;}
	.st7{fill:#FFF100;}
	.st8{fill:#FFFFFF;}
	.st9{opacity:0.25;fill:#1B1967;}
	.st10{fill:#EE1C25;}
</style>
<g id="Outer_Circle">
	<circle class="st0" cx="301.4" cy="302.8" r="288.9"></circle>
</g>
<g id="Inner_Circle">
	<radialGradient id="SVGID_1_" cx="301.3734" cy="302.82" r="219.456" gradientUnits="userSpaceOnUse">
		<stop offset="0" style="stop-color:#FFFFFF"></stop>
		<stop offset="1" style="stop-color:#8485BD"></stop>
	</radialGradient>
	<circle class="st1" cx="301.4" cy="302.8" r="219.5"></circle>
</g>
<g id="AGC_Tenwek_Hospital">
	<g>
		<g>
			<path class="st2" d="M69.5,276.8l-1.9,13.1l-2.5-0.4c0.1-1,0.1-1.8-0.1-2.5c-0.2-0.7-0.7-1.3-1.4-2c-0.7-0.6-1.8-1.4-3.2-2.2     l-28.2-17l0.9-6.1l32.1-8c2-0.5,3.5-1.1,4.5-1.8c1-0.7,1.6-1.8,1.8-3.1l2.5,0.4l-2.7,18.5l-2.5-0.4c0.1-0.5,0.1-1,0.1-1.5     s-0.1-1-0.3-1.4c-0.2-0.4-0.6-0.6-1.2-0.7c-0.4-0.1-1.1,0-2,0.1c-0.9,0.1-1.7,0.3-2.6,0.4l-4.4,1l-1.6,0.2l-15.9,3.2l0,0.2     l14.2,8.3l1.4,0.7l4.7,2.7c0.5,0.2,1,0.5,1.6,0.8c0.6,0.3,1.1,0.5,1.6,0.5c0.9,0.1,1.6-0.1,1.9-0.6c0.3-0.6,0.6-1.5,0.8-3     L69.5,276.8z M59.2,262.4L57,277.2l-2.8-1.5L56,263L59.2,262.4z"></path>
			<path class="st2" d="M81.6,226.7c-2.1,6.2-5.4,10.3-9.7,12.2c-4.3,1.9-9.4,1.8-15.3-0.2c-4.3-1.5-7.6-3.5-9.8-6.1     c-2.2-2.6-3.5-5.5-3.9-8.7c-0.4-3.3,0-6.6,1.2-10.2c0.7-1.9,1.4-3.4,2.1-4.5s1.4-1.9,2-2.4c0.6-0.6,1-1.1,1.1-1.6     c0.2-0.6,0.1-1.1-0.2-1.5c-0.3-0.4-0.7-0.7-1.2-1.1l0.8-2.4l13.3,4.6l-0.9,2.7c-3.9-0.6-6.9-0.2-9.2,1c-2.2,1.2-3.9,3.3-4.9,6.2     c-1.2,3.4-0.8,6.3,1.2,8.8c2,2.4,5.4,4.5,10.3,6.2c5.4,1.9,9.8,2.5,13,1.9c3.2-0.6,5.5-2.6,6.7-6.1c0.6-1.6,0.8-3,0.8-4.2     c0-1.2-0.2-2.4-0.7-3.8l-4.8-1.6c-1.3-0.5-2.4-0.7-3.1-0.7c-0.8,0-1.4,0.3-1.9,0.9c-0.5,0.6-0.9,1.6-1.4,3l-2.4-0.8l5.4-15.6     l2.4,0.8c-0.5,1.5-0.6,2.6-0.2,3.3c0.4,0.6,1.5,1.2,3.2,1.8l7.3,2.5c0.4,2.4,0.6,4.9,0.5,7.3C83.2,220.9,82.7,223.6,81.6,226.7z"></path>
			<path class="st2" d="M98.6,189c-2.1,3.7-4.5,6.3-7.3,7.9c-2.8,1.6-5.8,2.2-8.9,1.9c-3.2-0.3-6.4-1.3-9.7-3.2     c-3.9-2.2-6.8-4.7-8.6-7.6c-1.8-2.9-2.7-6.1-2.5-9.4c0.1-3.3,1.1-6.7,3-10.1c1-1.8,1.9-3.1,2.8-4c0.8-0.9,1.6-1.5,2.2-2     c0.6-0.4,1.1-0.9,1.4-1.4c0.3-0.6,0.4-1.1,0.1-1.5c-0.3-0.4-0.5-0.8-0.9-1.1l1.2-2.2l12.5,7l-1.4,2.4c-3.6-1.1-6.6-1.3-9.2-0.6     c-2.6,0.7-4.6,2.4-6,5c-1.7,3.1-1.8,6-0.4,8.8c1.5,2.8,4.5,5.4,8.9,7.9c3.2,1.8,5.9,2.8,8.3,3.1c2.4,0.3,4.5,0,6.3-1.1     c1.8-1.1,3.3-2.8,4.7-5.2c1.4-2.5,2.1-4.8,2.1-6.9c0-2.1-0.4-4.3-1.2-6.7l2.3-0.8c1,2,1.8,4,2.4,6c0.6,2,0.8,4.1,0.6,6.3     C101,183.8,100.1,186.3,98.6,189z"></path>
			<path class="st2" d="M134.9,139.2l-13.4,14.8l-1.9-1.7c1.1-1.3,1.9-2.3,2.2-3c0.3-0.8,0.3-1.5-0.2-2.3c-0.5-0.8-1.3-1.7-2.6-2.9     l-19.7-17.8l-1.8,1.9c-1.4,1.6-2.3,2.9-2.7,4.1c-0.3,1.1-0.2,2.3,0.4,3.4c0.6,1.2,1.5,2.6,2.8,4.3l-2,2.2l-8.1-8.2l23.8-26.3     l8.9,7.3l-2,2.2c-1.8-1.1-3.4-1.9-4.6-2.3c-1.2-0.4-2.4-0.5-3.4,0c-1.1,0.4-2.3,1.5-3.8,3.1l-1.7,1.9l19.7,17.8     c1.3,1.2,2.3,2,3.2,2.3c0.8,0.4,1.6,0.4,2.3-0.1c0.7-0.4,1.6-1.2,2.7-2.4L134.9,139.2z"></path>
			<path class="st2" d="M168.6,110.4l-26.1,20.8l-1.6-2c1-0.8,1.8-1.6,2.3-2.2c0.5-0.7,0.7-1.4,0.5-2.1c-0.2-0.7-0.7-1.7-1.6-2.8     l-14.4-18.1c-0.9-1.2-1.7-1.9-2.3-2.4c-0.6-0.4-1.4-0.5-2.1-0.2c-0.8,0.3-1.8,0.9-3,1.9l-1.6-2l25.6-20.4l6.9,8l-2.3,1.9     c-1.3-1.2-2.5-2-3.5-2.5c-1-0.5-2.1-0.5-3.2-0.2c-1.1,0.4-2.5,1.2-4.2,2.6l-6,4.8l8.4,10.5l4.1-3.2c1.5-1.2,2.6-2.2,3.1-2.9     c0.6-0.7,0.7-1.4,0.5-2.1c-0.2-0.7-0.8-1.6-1.8-2.8l2.1-1.7l8.4,10.5l-2.1,1.7c-1-1.3-1.9-2.1-2.5-2.6c-0.7-0.4-1.4-0.5-2.3-0.1     c-0.8,0.4-2,1.2-3.5,2.4l-4.1,3.2l9.1,11.3l5.4-4.3c1.5-1.2,2.6-2.3,3.5-3.2c0.8-1,1.4-1.9,1.6-2.8c0.2-0.9,0.2-2,0-3.1     c-0.2-1.1-0.7-2.4-1.3-4l2.2-1.7L168.6,110.4z"></path>
			<path class="st2" d="M205.9,89.8L200,93L166,77.2l-1.8,1l-2.9-1.7c-1-0.5-1.9-0.9-2.6-1c-0.7-0.1-1.4-0.1-2,0     c-0.6,0.2-1.3,0.4-2,0.8l-1.2-2.2l12.3-6.6l31,14.4l0.3-0.1l-8.3-15.3c-0.7-1.3-1.4-2.5-2.1-3.4c-0.7-0.9-1.5-1.5-2.5-1.6     c-1-0.2-2.2,0.2-3.9,1l-1.2-2.2l12.9-7l1.2,2.2c-1.5,0.8-2.4,1.6-2.7,2.5c-0.4,0.9-0.3,1.9,0,3c0.4,1.1,0.9,2.3,1.7,3.6     L205.9,89.8z M184.5,100.9l-12.9,6.9l-1.2-2.2c1.4-0.7,2.1-1.8,2.3-3c0.2-1.3,0-2.7-0.6-4.4c-0.6-1.6-1.3-3.3-2.2-5l-9.6-17.8     l3.4-1.8l11.6,21.5c0.9,1.7,1.7,2.9,2.4,3.7c0.7,0.7,1.5,1.1,2.3,1c0.8-0.1,1.9-0.4,3.2-1.1L184.5,100.9z"></path>
			<path class="st2" d="M232.5,80.4l-4.9,1.4l-20-26.2c-1.3-1.8-2.5-3-3.4-3.6c-0.9-0.6-2-0.7-3.4-0.5l-0.7-2.4l17.4-4.8l0.7,2.4     c-1.4,0.4-2.3,0.8-2.7,1.2c-0.4,0.4-0.5,0.9-0.4,1.5c0.2,0.7,0.6,1.6,1.3,2.5l10.5,13.7l2.7,4l0.4-0.1l2-17.7l4.2,5.6l-1.2,0.3     L232.5,80.4z M253.6,74.6l-5.3,1.4L234,56l-1.1-1.7l-3.3-4.9c-1-1.5-1.8-2.5-2.5-3.2c-0.6-0.6-1.3-1-1.9-1.1     c-0.6-0.1-1.5,0-2.5,0.3l-0.7-2.4l17.5-4.8l0.7,2.4c-2.8,0.8-4,1.9-3.6,3.3c0.1,0.4,0.3,0.9,0.7,1.3c0.3,0.5,0.7,1,1,1.6     l9.3,12.9l2.7,4.2l0.4-0.1l1-19.2c0-0.9,0-1.7,0-2.3c0-0.6-0.1-1.2-0.2-1.7c-0.3-1.3-0.9-2-1.8-2.1c-0.8-0.1-1.8,0-2.9,0.3     l-0.7-2.4l12.6-3.5l0.7,2.4c-1.3,0.3-2.1,0.9-2.6,1.7c-0.5,0.8-0.7,1.9-0.9,3.5L253.6,74.6z"></path>
			<path class="st2" d="M303.9,69.1l-33.3,1.9l-0.1-2.5c1.3-0.1,2.4-0.2,3.2-0.5c0.8-0.3,1.3-0.7,1.6-1.4c0.3-0.7,0.4-1.8,0.3-3.2     l-1.3-23.1c-0.1-1.5-0.3-2.6-0.5-3.3c-0.3-0.7-0.8-1.2-1.6-1.4c-0.8-0.2-2-0.3-3.6-0.2l-0.1-2.6l32.7-1.9l1,10.5l-3,0.2     c-0.4-1.7-0.8-3.1-1.4-4.1c-0.5-1-1.4-1.6-2.5-2c-1.1-0.3-2.8-0.5-4.9-0.3l-7.7,0.4l0.8,13.4l5.2-0.3c1.9-0.1,3.3-0.3,4.2-0.5     c0.9-0.2,1.4-0.7,1.6-1.4c0.2-0.7,0.3-1.8,0.2-3.3l2.7-0.2l0.8,13.4l-2.7,0.2c-0.1-1.6-0.3-2.8-0.6-3.6c-0.3-0.7-0.9-1.2-1.8-1.4     c-0.9-0.2-2.3-0.2-4.3-0.1l-5.2,0.3l0.8,14.5l6.9-0.4c1.9-0.1,3.5-0.3,4.7-0.6c1.2-0.3,2.2-0.8,2.9-1.4c0.7-0.6,1.3-1.5,1.8-2.5     c0.4-1.1,0.9-2.4,1.2-4l2.8-0.2L303.9,69.1z"></path>
			<path class="st2" d="M327.7,71.1l-19.2-2.3l0.3-2.5c1.7,0.2,2.9,0.2,3.7,0s1.3-0.7,1.6-1.5c0.3-0.8,0.5-2,0.7-3.7l2.5-21.2     c0.2-1.5,0.2-2.8,0.1-3.6c-0.1-0.9-0.5-1.5-1.2-2c-0.7-0.5-1.9-0.8-3.6-1l0.3-2.5l19.4,2.3l-0.3,2.5c-1.7-0.2-3-0.2-3.8,0.1     c-0.8,0.3-1.4,0.8-1.6,1.7c-0.3,0.8-0.5,2-0.7,3.6l-1.2,10l0.3,0l11-8c1.3-1,2.3-1.8,2.9-2.4c0.6-0.6,0.9-1.3,1-2.2     c0.1-0.7,0-1.1-0.4-1.5c-0.3-0.3-0.8-0.5-1.6-0.6l-1-0.1l0.3-2.5l15.7,1.9l-0.3,2.5c-1.1-0.1-2-0.1-2.8,0.1     c-0.8,0.1-1.6,0.4-2.4,0.9s-1.8,1.1-3,2l-12,8.4l14.2,18.8c0.8,1,1.6,1.8,2.3,2.3c0.8,0.5,1.8,0.8,3.1,1l-0.3,2.5l-20.3-2.4     l0.3-2.5l0.9,0.1c0.6,0.1,1.2,0,1.6-0.1c0.4-0.2,0.7-0.5,0.8-0.9c0.1-0.6-0.1-1.2-0.4-1.8c-0.3-0.6-0.9-1.6-1.8-2.8     c-0.9-1.2-2.2-2.9-3.8-5l-4.1-5.6l-0.5-0.1l-1.1,9.3c-0.2,1.6-0.2,2.9-0.1,3.7c0.1,0.9,0.5,1.5,1.2,1.8c0.7,0.4,1.9,0.7,3.5,0.9     L327.7,71.1z"></path>
			<path class="st2" d="M385.2,85.2l-18-7.2l0.9-2.3c1.5,0.6,2.7,0.9,3.5,1c0.8,0,1.5-0.3,2-1c0.5-0.7,1.1-1.8,1.7-3.4l8-19.9     c0.6-1.4,0.9-2.5,1.1-3.4c0.2-0.9,0-1.6-0.6-2.3c-0.6-0.6-1.7-1.3-3.3-1.9l0.9-2.3l18.2,7.3l-0.9,2.3c-1.6-0.7-2.9-0.9-3.7-0.9     c-0.8,0.1-1.5,0.5-2,1.2c-0.5,0.7-1,1.8-1.6,3.2l-3.3,8.2l15.7,6.3l3.3-8.2c0.6-1.4,0.9-2.6,1-3.5c0.1-0.9-0.1-1.6-0.7-2.2     c-0.6-0.6-1.6-1.3-3.2-1.9l0.9-2.3l18.3,7.3l-0.9,2.3c-1.6-0.7-2.9-1-3.7-0.9c-0.9,0.1-1.5,0.4-2,1.2c-0.5,0.7-1,1.8-1.6,3.2     l-8,19.9c-0.6,1.6-1,2.8-1.1,3.6c-0.1,0.9,0.2,1.6,0.8,2.1c0.6,0.5,1.7,1.1,3.3,1.7l-0.9,2.3l-18.3-7.3l0.9-2.3     c1.6,0.6,2.8,1,3.6,1c0.8,0,1.5-0.3,2-1c0.5-0.7,1.1-1.9,1.7-3.4l3.5-8.7L387,66.7l-3.5,8.7c-0.6,1.6-1,2.8-1.2,3.7     c-0.1,0.8,0.1,1.5,0.7,2.1c0.6,0.5,1.6,1.1,3.1,1.7L385.2,85.2z"></path>
			<path class="st2" d="M428.2,108.1c-3.4-2.2-5.9-4.8-7.4-7.6c-1.5-2.9-2.1-6-1.7-9.3c0.4-3.3,1.7-6.8,4-10.3     c2.2-3.4,4.8-5.9,7.7-7.6c2.9-1.6,6-2.4,9.3-2.1c3.3,0.2,6.6,1.4,10,3.6c3.4,2.2,5.9,4.8,7.5,7.6c1.6,2.8,2.2,5.9,1.9,9.1     c-0.3,3.2-1.6,6.5-3.8,9.9c-2.3,3.5-4.9,6.2-7.9,8c-2.9,1.8-6,2.5-9.3,2.4C435,111.5,431.6,110.3,428.2,108.1z M429.9,105.6     c2.8,1.8,5.7,2.1,8.6,0.6s6-4.6,9.3-9.7c2-3,3.3-5.8,3.9-8.3s0.7-4.7,0.1-6.6c-0.6-1.9-1.8-3.4-3.5-4.6c-2.6-1.7-5.4-1.8-8.4-0.4     c-3,1.4-6,4.4-8.9,8.8c-3,4.6-4.6,8.6-4.9,12.1C425.7,101.1,427,103.7,429.9,105.6z"></path>
			<path class="st2" d="M449.5,123.4l-1.9-1.7l8.1-9.7l2.2,2c-1.2,2.3-2,4.1-2.3,5.6c-0.3,1.5-0.3,2.8,0.2,3.9     c0.5,1.1,1.3,2.2,2.4,3.2c0.9,0.8,1.9,1.5,2.9,2c1,0.5,2.1,0.7,3.1,0.6c1-0.1,2-0.6,2.8-1.6c1.1-1.2,1.7-2.5,1.8-3.9     c0.1-1.3-0.1-2.7-0.5-4.2c-0.5-1.4-1-2.9-1.7-4.5c-0.7-1.9-1.3-3.7-1.8-5.5c-0.5-1.8-0.6-3.5-0.3-5.3c0.3-1.7,1.3-3.5,2.9-5.2     c1.5-1.6,3.1-2.6,4.8-3c1.7-0.4,3.6-0.2,5.5,0.6c1.9,0.8,3.9,2,5.8,3.8c1.1,1,1.9,1.9,2.5,2.7c0.5,0.8,1,1.5,1.3,2.1     c0.3,0.6,0.6,1,1,1.4c0.3,0.2,0.6,0.4,1,0.5c0.4,0.1,0.8,0,1.3-0.4l1.6,1.5l-8,9.3l-2-1.8c1.7-3.2,2.6-5.8,2.4-7.8     c-0.1-2-1-3.7-2.6-5.2c-1.5-1.4-2.9-2.2-4.2-2.3c-1.3-0.2-2.4,0.3-3.5,1.5c-1,1.1-1.5,2.2-1.5,3.4c0,1.2,0.3,2.6,0.8,4     c0.5,1.4,1.1,2.9,1.8,4.5c0.6,1.4,1.2,2.8,1.6,4.3c0.5,1.4,0.7,2.9,0.8,4.3c0.1,1.5-0.1,2.9-0.5,4.3c-0.5,1.4-1.3,2.8-2.5,4.2     c-1.6,1.8-3.4,2.9-5.4,3.3c-2,0.4-4.1,0.2-6.3-0.7c-2.2-0.8-4.4-2.2-6.5-4.2c-1.4-1.3-2.4-2.3-2.9-3.2c-0.6-0.9-0.9-1.6-1.1-2.2     c-0.2-0.6-0.4-1-0.8-1.3c-0.3-0.3-0.7-0.4-1.1-0.4C450.2,122.8,449.8,123,449.5,123.4z"></path>
			<path class="st2" d="M483.7,157.4l-13.1-15.9l1.9-1.6c1.1,1.3,1.9,2.1,2.6,2.6c0.7,0.4,1.4,0.5,2.2,0.1c0.8-0.4,1.8-1,3-2.1     l17.8-14.7c1.5-1.2,2.2-2.3,2.1-3.3c0-1-0.7-2.2-2-3.8l1.9-1.6l12,14.5c1.3,1.5,2.4,3.1,3.3,4.7c1,1.6,1.6,3.2,2,4.8     c0.3,1.6,0.3,3.1-0.2,4.6c-0.5,1.5-1.6,2.9-3.2,4.3c-1.8,1.5-3.6,2.4-5.3,2.7s-3.5,0.2-5.1-0.3s-3.2-1.4-4.7-2.6     c-1.5-1.2-2.9-2.6-4.2-4.2c-0.4-0.5-0.9-1.2-1.2-1.9c-0.4-0.7-0.7-1.4-1-2l-6.7,5.5c-1.2,1-2,1.8-2.5,2.5     c-0.4,0.7-0.5,1.5-0.1,2.4c0.4,0.9,1.2,2.1,2.5,3.6L483.7,157.4z M496.4,142.6c1.1,1.4,2.2,2.4,3.3,3c1.1,0.6,2.3,0.8,3.6,0.5     c1.3-0.3,2.9-1.2,4.6-2.7c2.1-1.7,3.2-3.4,3.4-5.2s-0.7-3.8-2.6-6.1c-0.3-0.4-0.6-0.7-0.9-1c-0.3-0.3-0.6-0.7-1.1-1.1l-12.1,10     c0.2,0.4,0.5,0.7,0.6,1.1C495.4,141.4,495.8,141.9,496.4,142.6z"></path>
			<path class="st2" d="M504.2,187.4L494,171.1l2.1-1.3c0.9,1.4,1.7,2.4,2.3,2.9c0.6,0.5,1.4,0.6,2.2,0.3c0.8-0.3,1.9-0.9,3.3-1.7     l18.1-11.3c1.3-0.8,2.3-1.6,2.9-2.2c0.6-0.6,0.9-1.4,0.8-2.2c-0.1-0.8-0.6-2-1.5-3.4l2.1-1.3l10.4,16.6l-2.1,1.3     c-0.9-1.4-1.7-2.4-2.4-2.9c-0.7-0.5-1.5-0.5-2.3-0.2s-1.9,0.9-3.2,1.7l-18.1,11.3c-1.4,0.9-2.4,1.6-3,2.2     c-0.6,0.6-0.9,1.3-0.7,2.1c0.1,0.8,0.6,1.9,1.5,3.2L504.2,187.4z"></path>
			<path class="st2" d="M517.9,215.6l-8.3-18.2l2.3-1c0.7,1.6,1.3,2.6,1.9,3.3c0.6,0.6,1.3,0.9,2.2,0.7c0.9-0.1,2.1-0.5,3.7-1.3     l24.2-11l-1.1-2.4c-0.9-1.9-1.8-3.3-2.7-4.1c-0.9-0.8-2-1.1-3.3-1c-1.3,0.1-3,0.3-5.1,0.8l-1.2-2.7l10.8-4.2l14.7,32.3l-10.3,5.2     l-1.2-2.7c1.7-1.3,3-2.4,3.9-3.3c0.9-0.9,1.4-2,1.4-3.2c0-1.2-0.4-2.7-1.3-4.7l-1.1-2.3l-24.2,11c-1.6,0.7-2.7,1.4-3.4,2     c-0.7,0.6-1,1.3-0.9,2.1c0.1,0.8,0.5,2,1.2,3.5L517.9,215.6z"></path>
			<path class="st2" d="M525.1,236.5l-3.3-12.9l2.4-0.6c0.3,1,0.6,1.7,1.1,2.3c0.5,0.5,1.2,1,2.1,1.3c0.9,0.3,2.2,0.6,3.8,0.7     l32.6,4.7l1.5,5.9l-26.5,19.8c-1.6,1.2-2.8,2.4-3.4,3.4s-0.8,2.2-0.5,3.5l-2.4,0.6l-4.7-18.1l2.4-0.6c0.1,0.5,0.3,1,0.5,1.5     c0.2,0.5,0.5,0.9,0.8,1.2c0.4,0.3,0.8,0.4,1.4,0.2c0.4-0.1,1-0.4,1.8-0.8c0.8-0.4,1.5-0.9,2.2-1.4l3.7-2.6l1.4-0.8l13.4-9.1     l-0.1-0.2l-16.3-2.2l-1.6-0.1l-5.3-0.7c-0.5,0-1.1-0.1-1.8-0.1c-0.7,0-1.2,0-1.7,0.1c-0.9,0.2-1.4,0.7-1.5,1.3     c-0.1,0.6,0,1.7,0.4,3.1L525.1,236.5z M540.2,245.8l-3.7-14.6l3.2,0.3l3.2,12.5L540.2,245.8z"></path>
			<path class="st2" d="M535.1,300.5l-2.6-33.1l2.5-0.2c0.1,1.6,0.4,2.8,0.7,3.6c0.3,0.8,0.9,1.2,1.7,1.4c0.8,0.2,1.9,0.2,3.5,0.1     l22.1-1.7c1.5-0.1,2.6-0.3,3.4-0.6c0.8-0.3,1.3-0.8,1.6-1.6c0.3-0.8,0.3-2,0.2-3.6l2.5-0.2l1.5,19.8l-2.5,0.2     c-0.1-1.7-0.4-2.9-0.8-3.7s-1-1.3-1.8-1.5c-0.8-0.2-2-0.2-3.5-0.1l-23,1.8c-1.4,0.1-2.3,0.5-2.7,1.1c-0.4,0.6-0.5,1.8-0.4,3.5     l0.3,3.5c0.1,1.6,0.4,3,0.7,4c0.4,1,0.9,1.9,1.6,2.5c0.7,0.6,1.6,1.1,2.8,1.5c1.2,0.4,2.6,0.7,4.3,1l0.2,3L535.1,300.5z"></path>
		</g>
	</g>
	<g>
		<g class="st3">
			<path class="st4" d="M71.5,280.2l-1.8,13.2l-2.5-0.3c0.1-1,0.1-1.8-0.1-2.5c-0.2-0.7-0.7-1.3-1.4-2c-0.7-0.6-1.8-1.3-3.2-2.1     L34,269.9l0.8-6.1l31.9-8.4c2-0.5,3.4-1.2,4.5-1.9c1-0.7,1.6-1.8,1.8-3.1l2.5,0.3L73,269.2l-2.5-0.3c0.1-0.5,0.1-1,0.1-1.5     c0-0.5-0.1-1-0.3-1.4c-0.2-0.4-0.6-0.6-1.2-0.7c-0.4-0.1-1.1,0-2,0.1c-0.9,0.1-1.7,0.3-2.6,0.5l-4.4,1.1l-1.6,0.3l-15.9,3.4     l0,0.2l14.3,8.1l1.4,0.7l4.7,2.6c0.5,0.2,1,0.5,1.6,0.7c0.6,0.3,1.1,0.4,1.6,0.5c0.9,0.1,1.6-0.1,1.9-0.7c0.3-0.6,0.6-1.6,0.8-3     L71.5,280.2z M61,265.9l-2,14.9l-2.9-1.4l1.7-12.8L61,265.9z"></path>
			<path class="st4" d="M82.9,229.9c-2.1,6.3-5.2,10.4-9.5,12.3c-4.3,2-9.4,2-15.3,0c-4.4-1.4-7.7-3.4-9.9-6c-2.3-2.5-3.6-5.4-4-8.7     c-0.4-3.2-0.1-6.6,1.1-10.2c0.6-2,1.3-3.5,2-4.5c0.7-1.1,1.4-1.9,1.9-2.5c0.6-0.6,0.9-1.1,1.1-1.6c0.2-0.6,0.1-1.1-0.2-1.5     c-0.3-0.4-0.8-0.7-1.2-1l0.8-2.4l13.3,4.4l-0.9,2.7c-3.9-0.5-6.9-0.1-9.2,1.2c-2.2,1.3-3.8,3.4-4.8,6.3c-1.1,3.4-0.7,6.4,1.3,8.7     c2,2.4,5.5,4.4,10.4,6c5.5,1.8,9.8,2.4,13,1.8c3.2-0.6,5.4-2.7,6.6-6.2c0.5-1.6,0.8-3,0.8-4.2c0-1.2-0.3-2.4-0.8-3.8l-4.8-1.6     c-1.3-0.4-2.4-0.7-3.2-0.7c-0.8,0-1.4,0.3-1.9,0.9c-0.5,0.6-0.9,1.6-1.4,3l-2.4-0.8l5.1-15.7l2.4,0.8c-0.5,1.6-0.6,2.6-0.1,3.3     s1.5,1.2,3.2,1.8l7.3,2.4c0.5,2.4,0.7,4.8,0.6,7.3C84.5,224,83.9,226.8,82.9,229.9z"></path>
			<path class="st4" d="M99.4,192c-2,3.7-4.4,6.4-7.2,8c-2.8,1.6-5.7,2.3-8.9,2.1c-3.2-0.2-6.4-1.2-9.8-3c-3.9-2.1-6.8-4.6-8.7-7.5     c-1.9-2.9-2.8-6-2.7-9.4c0.1-3.3,1-6.7,2.9-10.1c1-1.8,1.9-3.2,2.7-4.1c0.8-0.9,1.6-1.6,2.2-2c0.6-0.4,1.1-0.9,1.3-1.4     c0.3-0.6,0.3-1.1,0.1-1.5c-0.3-0.4-0.6-0.8-0.9-1.1l1.2-2.2l12.6,6.8L83,169c-3.6-1-6.7-1.2-9.2-0.5c-2.6,0.7-4.5,2.4-6,5.1     c-1.7,3.1-1.8,6.1-0.2,8.8c1.5,2.8,4.5,5.4,9,7.8c3.2,1.7,6,2.7,8.4,3c2.4,0.3,4.5-0.1,6.2-1.2c1.8-1.1,3.3-2.9,4.6-5.2     c1.4-2.5,2-4.8,2-6.9c0-2.1-0.5-4.3-1.3-6.6l2.3-0.9c1,2,1.8,4,2.5,5.9c0.6,2,0.9,4,0.7,6.3C101.7,186.8,100.9,189.2,99.4,192z"></path>
			<path class="st4" d="M135,141.7l-13.2,15l-1.9-1.7c1.1-1.3,1.9-2.3,2.2-3.1c0.3-0.8,0.3-1.5-0.2-2.3c-0.5-0.8-1.4-1.7-2.7-2.9     l-20-17.5l-1.7,2c-1.4,1.6-2.3,3-2.6,4.1c-0.3,1.1-0.2,2.3,0.4,3.4c0.6,1.1,1.5,2.6,2.8,4.3l-1.9,2.2l-8.2-8.1l23.4-26.7l9,7.2     l-1.9,2.2c-1.9-1.1-3.4-1.8-4.6-2.2c-1.2-0.4-2.4-0.4-3.4,0c-1.1,0.5-2.3,1.5-3.8,3.1l-1.7,1.9l20,17.5c1.3,1.2,2.4,1.9,3.2,2.3     c0.8,0.4,1.6,0.3,2.3-0.1c0.7-0.4,1.6-1.3,2.7-2.5L135,141.7z"></path>
			<path class="st4" d="M168.3,112.4l-25.8,21.2l-1.6-1.9c1-0.8,1.8-1.6,2.2-2.3c0.5-0.7,0.6-1.4,0.5-2.1c-0.2-0.7-0.7-1.7-1.6-2.8     l-14.7-17.9c-0.9-1.1-1.7-1.9-2.4-2.3c-0.6-0.4-1.4-0.5-2.1-0.2c-0.8,0.3-1.8,0.9-3,1.9l-1.6-2l25.3-20.8l7,7.9l-2.3,1.9     c-1.3-1.2-2.5-2-3.5-2.5c-1-0.5-2.1-0.5-3.2-0.1c-1.1,0.4-2.5,1.3-4.2,2.6l-5.9,4.9l8.5,10.4l4-3.3c1.5-1.2,2.5-2.2,3.1-2.9     c0.6-0.7,0.7-1.4,0.5-2.1c-0.2-0.7-0.9-1.6-1.8-2.8l2.1-1.7l8.6,10.4l-2.1,1.7c-1-1.3-1.9-2.1-2.6-2.5c-0.7-0.4-1.4-0.4-2.3,0     c-0.8,0.4-2,1.2-3.5,2.5l-4,3.3l9.2,11.2l5.3-4.4c1.5-1.2,2.6-2.3,3.4-3.3c0.8-1,1.3-1.9,1.5-2.9c0.2-0.9,0.2-2-0.1-3.1     c-0.3-1.1-0.7-2.4-1.4-4l2.2-1.8L168.3,112.4z"></path>
			<path class="st4" d="M205.2,91.3l-5.9,3.3l-34.1-15.4l-1.8,1l-2.9-1.6c-1.1-0.5-1.9-0.8-2.6-1c-0.7-0.1-1.4-0.1-2,0.1     c-0.6,0.2-1.3,0.4-2,0.8l-1.2-2.2l12.2-6.8l31.2,14l0.3-0.1l-8.5-15.2c-0.7-1.3-1.5-2.4-2.2-3.3c-0.7-0.9-1.5-1.4-2.5-1.6     c-1-0.2-2.2,0.2-3.8,1.1l-1.2-2.2l12.8-7.2l1.2,2.2c-1.5,0.8-2.4,1.7-2.7,2.6c-0.3,0.9-0.3,1.9,0.1,3c0.4,1.1,1,2.3,1.7,3.6     L205.2,91.3z M184.1,102.6l-12.8,7.1l-1.2-2.2c1.4-0.8,2.1-1.8,2.3-3.1c0.2-1.3,0-2.7-0.6-4.4c-0.6-1.6-1.4-3.3-2.3-5l-9.9-17.7     l3.4-1.9L174.8,97c0.9,1.7,1.8,2.9,2.5,3.6c0.7,0.7,1.5,1.1,2.4,1c0.8-0.1,1.9-0.5,3.2-1.2L184.1,102.6z"></path>
			<path class="st4" d="M231.7,81.5l-4.9,1.4L206.3,57c-1.4-1.8-2.5-3-3.4-3.5c-0.9-0.5-2-0.7-3.4-0.5l-0.7-2.4l17.3-5l0.7,2.4     c-1.4,0.4-2.3,0.8-2.7,1.2c-0.4,0.4-0.5,0.9-0.3,1.5c0.2,0.7,0.7,1.6,1.3,2.5l10.7,13.5l2.7,4l0.4-0.1l1.8-17.7l4.3,5.6l-1.2,0.4     L231.7,81.5z M252.8,75.4l-5.3,1.5L232.8,57l-1.2-1.7l-3.4-4.8c-1-1.4-1.9-2.5-2.5-3.1c-0.7-0.6-1.3-1-1.9-1     c-0.6-0.1-1.5,0.1-2.5,0.4l-0.7-2.4l17.5-5.1l0.7,2.4c-2.8,0.8-3.9,1.9-3.5,3.4c0.1,0.4,0.3,0.9,0.7,1.3c0.3,0.5,0.7,1,1.1,1.6     l9.5,12.8l2.7,4.1l0.4-0.1l0.7-19.2c0-0.9,0-1.7,0-2.3c0-0.6-0.1-1.2-0.3-1.7c-0.4-1.3-1-2-1.8-2.1c-0.8-0.1-1.8,0-2.9,0.3     l-0.7-2.4l12.6-3.6l0.7,2.4c-1.3,0.4-2.1,0.9-2.6,1.7c-0.4,0.8-0.7,1.9-0.8,3.5L252.8,75.4z"></path>
			<path class="st4" d="M302.9,69.2l-33.3,2.4l-0.2-2.5c1.3-0.1,2.4-0.3,3.1-0.5c0.8-0.3,1.3-0.8,1.6-1.5c0.3-0.7,0.4-1.8,0.3-3.2     l-1.7-23.1c-0.1-1.5-0.3-2.6-0.6-3.3c-0.3-0.7-0.8-1.2-1.6-1.4c-0.8-0.2-2-0.3-3.6-0.2l-0.2-2.6l32.7-2.3l1.1,10.5l-3,0.2     c-0.4-1.7-0.9-3.1-1.4-4c-0.6-1-1.4-1.6-2.5-2c-1.1-0.3-2.8-0.4-4.9-0.3l-7.7,0.6l1,13.4l5.2-0.4c1.9-0.1,3.3-0.3,4.2-0.6     c0.9-0.3,1.4-0.7,1.6-1.5c0.2-0.7,0.2-1.8,0.1-3.3l2.7-0.2l1,13.4l-2.7,0.2c-0.1-1.6-0.3-2.8-0.6-3.5c-0.3-0.7-0.9-1.2-1.8-1.3     c-0.9-0.1-2.3-0.2-4.3,0l-5.2,0.4l1,14.5l6.9-0.5c1.9-0.1,3.5-0.4,4.7-0.7c1.2-0.3,2.2-0.8,2.9-1.4c0.7-0.6,1.3-1.5,1.7-2.5     c0.4-1.1,0.8-2.4,1.2-4l2.8-0.2L302.9,69.2z"></path>
			<path class="st4" d="M326.8,70.9l-19.2-2l0.3-2.5c1.7,0.2,2.9,0.2,3.7,0s1.3-0.7,1.6-1.5c0.3-0.8,0.5-2,0.7-3.7l2.2-21.3     c0.2-1.5,0.2-2.8,0.1-3.6c-0.1-0.9-0.5-1.5-1.2-2c-0.7-0.4-1.9-0.8-3.6-0.9l0.3-2.5l19.5,2l-0.3,2.5c-1.7-0.2-3-0.1-3.8,0.2     c-0.8,0.3-1.3,0.9-1.6,1.7c-0.3,0.9-0.5,2.1-0.6,3.6l-1,10l0.3,0l10.9-8.1c1.3-1,2.3-1.8,2.8-2.4c0.6-0.6,0.9-1.3,1-2.2     c0.1-0.7-0.1-1.1-0.4-1.5s-0.8-0.5-1.6-0.6l-1-0.1l0.3-2.6l15.7,1.6l-0.3,2.6c-1.1-0.1-2,0-2.8,0.1c-0.8,0.2-1.6,0.4-2.4,0.9     c-0.8,0.4-1.8,1.1-3,2l-11.9,8.6l14.5,18.6c0.8,1,1.6,1.8,2.4,2.2c0.8,0.5,1.8,0.8,3.2,0.9l-0.3,2.5l-20.3-2.1l0.3-2.5l0.9,0.1     c0.6,0.1,1.2,0,1.6-0.2c0.4-0.2,0.7-0.5,0.7-0.9c0.1-0.6-0.1-1.2-0.4-1.8c-0.3-0.6-1-1.6-1.9-2.7c-0.9-1.2-2.2-2.8-3.9-4.9     l-4.2-5.5l-0.5,0l-1,9.3c-0.2,1.6-0.2,2.9-0.1,3.7c0.1,0.9,0.5,1.5,1.2,1.8c0.7,0.4,1.9,0.6,3.5,0.8L326.8,70.9z"></path>
			<path class="st4" d="M384.5,84.1l-18.1-7l0.9-2.3c1.6,0.6,2.7,0.9,3.5,0.9c0.8,0,1.5-0.3,2-1c0.5-0.7,1.1-1.9,1.7-3.4l7.7-20     c0.5-1.4,0.9-2.6,1-3.4c0.2-0.9-0.1-1.6-0.6-2.2c-0.6-0.6-1.7-1.2-3.3-1.9l0.9-2.3l18.3,7l-0.9,2.3c-1.6-0.6-2.9-0.9-3.7-0.8     c-0.8,0.1-1.5,0.5-2,1.2c-0.5,0.7-1,1.8-1.6,3.3l-3.2,8.2l15.8,6.1l3.2-8.2c0.6-1.4,0.9-2.6,1-3.5c0.1-0.9-0.1-1.6-0.7-2.2     c-0.6-0.6-1.7-1.2-3.3-1.8l0.9-2.3l18.4,7.1l-0.9,2.3c-1.6-0.6-2.9-0.9-3.7-0.8c-0.9,0.1-1.5,0.5-2,1.2c-0.5,0.7-1,1.8-1.6,3.3     l-7.7,20c-0.6,1.6-0.9,2.8-1,3.7c-0.1,0.9,0.2,1.6,0.8,2.1c0.6,0.5,1.7,1.1,3.3,1.7l-0.9,2.3l-18.4-7.1l0.9-2.3     c1.6,0.6,2.8,0.9,3.6,1c0.8,0,1.5-0.3,2-1.1c0.5-0.7,1-1.9,1.6-3.4l3.4-8.8L386,65.6l-3.4,8.8c-0.6,1.6-1,2.8-1.1,3.7     c-0.1,0.9,0.1,1.5,0.7,2.1c0.6,0.5,1.7,1.1,3.1,1.6L384.5,84.1z"></path>
			<path class="st4" d="M427.8,106.4c-3.4-2.2-6-4.7-7.5-7.5s-2.2-5.9-1.9-9.3c0.3-3.3,1.6-6.8,3.9-10.4c2.2-3.4,4.7-6,7.6-7.7     c2.9-1.7,5.9-2.4,9.2-2.3c3.3,0.2,6.6,1.3,10,3.5c3.4,2.2,6,4.7,7.6,7.5c1.6,2.8,2.3,5.9,2,9.1c-0.3,3.2-1.5,6.6-3.7,10     c-2.3,3.6-4.8,6.3-7.8,8.1c-2.9,1.8-6,2.6-9.3,2.5C434.6,109.8,431.2,108.6,427.8,106.4z M429.5,103.9c2.9,1.8,5.7,2,8.6,0.5     c2.9-1.5,5.9-4.7,9.1-9.8c1.9-3.1,3.2-5.8,3.8-8.4c0.6-2.5,0.6-4.7,0-6.6c-0.6-1.9-1.8-3.4-3.6-4.5c-2.6-1.6-5.4-1.7-8.4-0.3     c-3,1.5-5.9,4.4-8.8,9c-2.9,4.6-4.5,8.7-4.7,12.1C425.2,99.4,426.6,102.1,429.5,103.9z"></path>
			<path class="st4" d="M449.3,121.4l-1.9-1.7l7.9-9.8l2.2,1.9c-1.2,2.3-1.9,4.2-2.2,5.7s-0.2,2.8,0.2,3.9s1.3,2.2,2.5,3.2     c0.9,0.8,1.9,1.5,3,2c1,0.5,2.1,0.7,3.1,0.6c1-0.1,2-0.6,2.8-1.6c1.1-1.3,1.7-2.6,1.8-3.9c0.1-1.3-0.1-2.7-0.6-4.2     c-0.5-1.4-1.1-2.9-1.7-4.4c-0.8-1.9-1.4-3.7-1.9-5.4c-0.5-1.8-0.6-3.5-0.3-5.3c0.3-1.7,1.2-3.5,2.8-5.3c1.4-1.6,3-2.6,4.8-3     c1.7-0.4,3.6-0.2,5.5,0.5c1.9,0.7,3.9,2,5.9,3.7c1.1,1,1.9,1.9,2.5,2.7c0.6,0.8,1,1.5,1.3,2.1c0.3,0.6,0.6,1,1,1.3     c0.3,0.2,0.6,0.4,1,0.5s0.8,0,1.3-0.4l1.7,1.5l-7.8,9.4l-2.1-1.8c1.7-3.2,2.5-5.8,2.3-7.8c-0.1-2-1-3.7-2.7-5.1     c-1.5-1.4-3-2.1-4.2-2.2c-1.3-0.1-2.4,0.4-3.5,1.5c-0.9,1.1-1.4,2.2-1.4,3.5c0,1.2,0.3,2.5,0.9,4c0.6,1.4,1.2,2.9,1.9,4.5     c0.6,1.4,1.2,2.8,1.7,4.2c0.5,1.4,0.8,2.9,0.9,4.3c0.1,1.5,0,2.9-0.5,4.3c-0.4,1.4-1.3,2.9-2.5,4.2c-1.6,1.8-3.4,2.9-5.4,3.4     c-2,0.4-4.1,0.2-6.3-0.6c-2.2-0.8-4.4-2.2-6.6-4.1c-1.4-1.2-2.4-2.3-2.9-3.2c-0.6-0.9-0.9-1.6-1.2-2.2c-0.2-0.6-0.5-1-0.8-1.3     c-0.3-0.3-0.7-0.4-1.1-0.3C450.1,120.8,449.7,121,449.3,121.4z"></path>
			<path class="st4" d="M484,155l-13.4-15.7l1.9-1.6c1.1,1.3,2,2.1,2.6,2.5c0.7,0.4,1.4,0.4,2.2,0.1c0.8-0.4,1.7-1.1,3-2.1     l17.6-14.9c1.5-1.2,2.1-2.3,2.1-3.3c-0.1-1-0.8-2.2-2.1-3.8l1.9-1.6l12.2,14.4c1.3,1.5,2.4,3.1,3.4,4.6c1,1.6,1.7,3.2,2,4.7     c0.4,1.6,0.3,3.1-0.2,4.6c-0.5,1.5-1.5,2.9-3.2,4.3c-1.8,1.5-3.5,2.4-5.3,2.8c-1.8,0.4-3.5,0.3-5.1-0.2s-3.2-1.4-4.8-2.5     c-1.5-1.2-2.9-2.6-4.3-4.1c-0.5-0.5-0.9-1.1-1.3-1.8s-0.7-1.3-1-1.9l-6.6,5.6c-1.2,1-2,1.9-2.4,2.6c-0.4,0.7-0.4,1.5,0,2.4     c0.4,0.9,1.3,2.1,2.5,3.6L484,155z M496.4,139.9c1.2,1.4,2.3,2.4,3.4,3c1.1,0.6,2.3,0.8,3.6,0.4c1.3-0.3,2.8-1.3,4.6-2.7     c2-1.7,3.1-3.5,3.3-5.3c0.2-1.8-0.7-3.8-2.7-6.1c-0.3-0.4-0.6-0.7-0.9-1c-0.3-0.3-0.6-0.6-1.1-1l-12,10.2c0.2,0.4,0.5,0.7,0.7,1     C495.5,138.7,495.9,139.2,496.4,139.9z"></path>
			<path class="st4" d="M505,184.6l-10.5-16.2l2.1-1.4c0.9,1.4,1.7,2.4,2.4,2.9c0.7,0.5,1.4,0.6,2.2,0.3c0.8-0.3,1.9-0.9,3.3-1.8     l18-11.6c1.3-0.8,2.3-1.6,2.9-2.2c0.6-0.6,0.9-1.4,0.8-2.2c-0.1-0.8-0.6-2-1.5-3.4l2.1-1.4l10.6,16.4l-2.1,1.4     c-0.9-1.4-1.8-2.4-2.5-2.8c-0.7-0.5-1.5-0.5-2.3-0.2s-1.9,0.9-3.2,1.7l-18,11.6c-1.4,0.9-2.4,1.6-3,2.2c-0.6,0.6-0.9,1.3-0.7,2.1     c0.2,0.8,0.7,1.9,1.6,3.2L505,184.6z"></path>
			<path class="st4" d="M519,212.6l-8.5-18.1l2.3-1.1c0.7,1.5,1.4,2.6,1.9,3.2c0.6,0.6,1.3,0.9,2.2,0.7c0.9-0.1,2.1-0.6,3.7-1.3     l24-11.3l-1.1-2.4c-0.9-1.9-1.8-3.3-2.7-4c-0.9-0.8-2-1.1-3.3-1c-1.3,0.1-3,0.4-5.1,0.9l-1.2-2.6l10.7-4.3l15.1,32.1l-10.2,5.4     l-1.2-2.6c1.7-1.3,3-2.4,3.9-3.4c0.9-1,1.3-2,1.3-3.2c0-1.2-0.4-2.7-1.4-4.7l-1.1-2.3l-24,11.3c-1.6,0.7-2.7,1.4-3.4,2     c-0.7,0.6-0.9,1.3-0.8,2.1c0.1,0.8,0.5,2,1.2,3.5L519,212.6z"></path>
			<path class="st4" d="M526.6,233.5l-3.5-12.8l2.4-0.7c0.3,1,0.6,1.7,1.1,2.3c0.5,0.5,1.2,1,2.1,1.2s2.2,0.5,3.8,0.7l32.7,4.2     l1.6,5.9l-26.2,20.2c-1.6,1.2-2.7,2.4-3.4,3.5c-0.7,1.1-0.8,2.3-0.5,3.5l-2.4,0.7l-4.9-18.1l2.4-0.7c0.1,0.5,0.3,1,0.5,1.5     c0.2,0.5,0.5,0.9,0.8,1.2c0.4,0.3,0.8,0.4,1.4,0.2c0.4-0.1,1-0.4,1.8-0.8c0.8-0.4,1.5-0.9,2.2-1.4l3.7-2.7l1.3-0.8l13.3-9.3     l-0.1-0.2l-16.4-2l-1.6-0.1l-5.4-0.6c-0.5,0-1.1,0-1.8-0.1c-0.7,0-1.2,0-1.7,0.2c-0.9,0.2-1.4,0.7-1.5,1.3     c-0.1,0.6,0.1,1.7,0.4,3.1L526.6,233.5z M541.8,242.6l-3.9-14.5l3.2,0.2l3.4,12.5L541.8,242.6z"></path>
			<path class="st4" d="M537.4,297.3l-3.1-33l2.5-0.2c0.2,1.6,0.4,2.8,0.7,3.6c0.3,0.7,0.9,1.2,1.7,1.4c0.8,0.2,1.9,0.2,3.5,0     l22.1-2c1.5-0.1,2.6-0.3,3.4-0.6c0.8-0.3,1.3-0.8,1.6-1.6c0.3-0.8,0.3-2,0.2-3.6l2.5-0.2l1.8,19.7l-2.5,0.2     c-0.2-1.7-0.4-2.9-0.8-3.7c-0.4-0.8-1-1.3-1.9-1.4c-0.8-0.2-2-0.2-3.5-0.1l-23,2.1c-1.4,0.1-2.3,0.5-2.7,1.2     c-0.4,0.6-0.5,1.8-0.3,3.5l0.3,3.5c0.2,1.6,0.4,3,0.8,4c0.4,1,0.9,1.9,1.6,2.5c0.7,0.6,1.7,1.1,2.8,1.5s2.6,0.7,4.4,0.9l0.3,3     L537.4,297.3z"></path>
		</g>
	</g>
</g>
<g id="WE_Treat_Jesus_Heals">
	<g>
		<g>
			<path class="st2" d="M56.1,422.1l-2.2-4.4L74,394c1.4-1.6,2.3-2.9,2.6-3.8c0.3-0.9,0.3-2-0.2-3.3l2.1-1.1l7.9,15.3l-2.1,1.1     c-0.6-1.2-1.2-2-1.6-2.3c-0.5-0.3-1-0.3-1.5-0.1c-0.6,0.3-1.3,0.9-2.1,1.7L68.6,414l-3.2,3.3l0.2,0.3l16.7-1.5l-4.4,5l-0.6-1.1     L56.1,422.1z M65.7,440.7l-2.4-4.7l15.7-17.3l1.3-1.4l3.9-4c1.1-1.2,2-2.2,2.4-2.9c0.5-0.7,0.7-1.4,0.6-2     c-0.1-0.6-0.3-1.4-0.8-2.3l2.1-1.1l7.9,15.4l-2.1,1.1c-1.3-2.4-2.5-3.3-3.8-2.7c-0.4,0.2-0.7,0.5-1.1,0.9     c-0.4,0.4-0.8,0.8-1.3,1.3L78,432.2l-3.3,3.3l0.2,0.3l18-2.8c0.8-0.1,1.5-0.3,2.1-0.4c0.6-0.2,1.1-0.3,1.5-0.6     c1.1-0.6,1.6-1.3,1.6-2.1c-0.1-0.8-0.3-1.7-0.8-2.6l2.1-1.1l5.7,11.1l-2.1,1.1c-0.6-1.1-1.3-1.8-2.1-2.1     c-0.8-0.3-1.9-0.3-3.4-0.2L65.7,440.7z"></path>
			<path class="st2" d="M84.9,469c-1.7-2.1-2.6-4.3-3-6.4c-0.3-2.1,0-4.2,1-6.2c1-2,2.6-3.9,4.9-5.7c2.5-1.9,4.9-3,7.3-3.3     c2.4-0.3,4.5,0.1,6.6,1.1c2,1,3.8,2.5,5.2,4.4c2.2,2.8,3,5.7,2.7,8.7c-0.4,3-2.2,5.7-5.4,8.3L93.5,456l2-1.6l5.4,7.1     c1.2-0.9,2.2-1.8,2.9-2.7c0.8-0.9,1.2-1.7,1.4-2.5c0.2-0.8-0.1-1.6-0.7-2.4c-1-1.4-2.3-1.8-3.9-1.4c-1.5,0.4-3.6,1.6-6.2,3.6     c-1.9,1.5-3.3,2.9-4,4.2c-0.8,1.3-1,2.6-0.8,3.8c0.2,1.3,0.8,2.5,1.8,3.8c0.9,1.1,1.8,2,2.6,2.7c0.9,0.6,1.7,1.1,2.7,1.3     c0.9,0.3,1.8,0.4,2.8,0.4l0.1,1.8c-1.2,0.2-2.4,0.3-3.6,0.4c-1.2,0.1-2.4,0.1-3.6-0.2c-1.2-0.2-2.4-0.7-3.7-1.5     C87.4,471.9,86.2,470.7,84.9,469z"></path>
			<path class="st2" d="M127.6,512.3l-14.3-12.6l1.6-1.8c1.2,1.1,2.2,1.8,2.9,2.1c0.7,0.3,1.5,0.3,2.2-0.2c0.7-0.4,1.6-1.3,2.7-2.5     l16.6-18.8l-1.9-1.7c-1.5-1.3-2.8-2.2-3.9-2.5c-1.1-0.3-2.2-0.2-3.2,0.4c-1.1,0.6-2.4,1.4-4,2.7l-2.1-1.8l7.6-7.8l25.5,22.4     l-6.8,8.5l-2.1-1.8c1-1.8,1.7-3.2,2.1-4.4c0.4-1.2,0.4-2.2-0.1-3.3c-0.4-1-1.4-2.2-3-3.6l-1.8-1.6l-16.6,18.8     c-1.1,1.2-1.8,2.2-2.2,3c-0.4,0.8-0.3,1.5,0.1,2.2c0.4,0.7,1.2,1.5,2.4,2.6L127.6,512.3z"></path>
			<path class="st2" d="M152.7,530.4l-14.5-9.8l1.2-1.8c1,0.7,1.8,1.1,2.4,1.3c0.6,0.2,1.1,0.1,1.6-0.3c0.5-0.4,1-1,1.6-1.8     l7.5-11.2c0.6-0.8,0.9-1.5,0.9-2.1c0.1-0.6-0.3-1.2-1.1-1.7c-0.5-0.3-1-0.6-1.5-0.9l1.3-2l8.2,3.5l2.6,1.8l-3.2,4.7l0.2,0.1     c1.5-0.5,2.8-1,3.9-1.3c1-0.4,2-0.6,2.8-0.6c0.9,0,1.8,0.3,2.7,1c1.2,0.8,1.9,1.7,2,2.8c0.1,1.1-0.2,2.2-1,3.3     c-0.9,1.3-1.8,2.1-2.8,2.2c-1,0.2-1.8,0-2.5-0.4c-0.7-0.5-1.1-1-1.4-1.6c-0.3-0.6-0.5-1.2-0.6-1.8c-0.1-0.5-0.3-0.9-0.6-1.1     c-0.5-0.3-1.1-0.5-1.9-0.4c-0.8,0-1.6,0.2-2.5,0.4l-6.3,9.4c-0.7,1-1,1.8-1.1,2.5c0,0.7,0.2,1.4,0.8,2c0.5,0.6,1.4,1.3,2.4,2     L152.7,530.4z"></path>
			<path class="st2" d="M173.1,542.9c-2.4-1.3-4.2-2.8-5.4-4.6c-1.2-1.8-1.7-3.8-1.7-6c0.1-2.2,0.8-4.6,2.1-7.2     c1.5-2.8,3.2-4.8,5.2-6c2-1.2,4.2-1.8,6.4-1.8c2.2,0.1,4.4,0.7,6.6,1.8c3.1,1.6,5.1,3.9,6.1,6.7c0.9,2.9,0.4,6.1-1.5,9.8     l-15.6-8.2l1.1-2.3l7.9,4.1c0.7-1.3,1.2-2.6,1.5-3.7c0.3-1.1,0.4-2.1,0.2-2.9c-0.2-0.8-0.7-1.4-1.6-1.9c-1.5-0.8-2.9-0.7-4.1,0.3     c-1.2,1-2.6,3-4.1,5.8c-1.1,2.1-1.8,4-1.9,5.5c-0.2,1.5,0.1,2.8,0.8,3.8c0.7,1.1,1.8,2,3.2,2.7c1.3,0.7,2.4,1.1,3.5,1.3     c1,0.2,2,0.2,3,0.1c0.9-0.2,1.8-0.4,2.7-0.8l0.8,1.5c-1,0.7-2.1,1.3-3.1,1.9c-1.1,0.6-2.2,1.1-3.4,1.4c-1.2,0.3-2.5,0.4-4,0.2     C176.6,544.4,174.9,543.8,173.1,542.9z"></path>
			<path class="st2" d="M197.1,554c-1.9-0.7-3.3-1.8-4.2-3.2c-0.9-1.4-0.9-3.1-0.1-5.2c0.5-1.4,1.3-2.5,2.3-3.3     c1-0.7,2.1-1.2,3.4-1.5c1.3-0.3,2.6-0.4,3.9-0.4c1.4,0,2.7,0.1,4.1,0.3c1.3,0.2,2.5,0.3,3.6,0.4l0.9-2.5c0.8-2.2,1.2-3.7,1-4.6     c-0.2-0.8-0.9-1.5-2.2-2c-1-0.4-1.8-0.4-2.4-0.1c-0.5,0.3-1.1,1.2-1.7,2.7c-0.4,1.2-1.1,1.9-2,2.1c-0.9,0.2-1.8,0.2-2.7-0.1     c-0.8-0.3-1.4-0.8-1.8-1.7c-0.5-0.8-0.5-1.8,0-3c0.4-1,1.2-1.8,2.3-2.4c1.1-0.6,2.5-0.8,4.2-0.8c1.7,0,3.5,0.4,5.5,1.2     c3.3,1.2,5.5,2.8,6.8,4.7c1.3,1.9,1.4,4.3,0.3,7.1l-4.2,11.2c-0.4,1-0.5,1.7-0.4,2.2c0.1,0.4,0.5,0.7,1,0.9     c0.4,0.2,0.9,0.2,1.4,0.1c0.5-0.1,1.1-0.3,1.6-0.5l0.7,1.6c-1.3,0.9-2.7,1.6-4,1.9c-1.3,0.4-3,0.2-4.9-0.6     c-1.9-0.7-3-1.5-3.4-2.3c-0.4-0.8-0.5-2-0.1-3.5l0.1-1.1l3.2-8.5c-1.5-0.1-2.8-0.1-3.9,0c-1.1,0.1-2,0.5-2.8,1     c-0.8,0.6-1.4,1.5-1.9,2.8c-0.5,1.3-0.6,2.3-0.5,3c0.2,0.7,0.7,1.3,1.5,1.6c0.8,0.3,1.5,0.4,2.3,0.2c0.8-0.1,1.8-0.5,3.1-1.1     l-0.8,3l-0.8-0.3c-1.1,0.4-2.1,0.7-2.9,0.9c-0.8,0.3-1.7,0.4-2.5,0.3C199.3,554.7,198.3,554.5,197.1,554z"></path>
			<path class="st2" d="M240.2,560.6l1,1.8c-1,0.8-2,1.4-3,2c-1,0.6-2.1,1-3.4,1.1c-1.3,0.2-2.9,0-4.8-0.5c-2.1-0.5-3.5-1.5-4.3-2.9     c-0.8-1.4-0.7-3.6,0.1-6.7l3.8-14.4l-3.4-0.9l0.6-2.2c1.8-0.5,3.5-1.3,5.2-2.3c1.7-1,3.4-2.5,5.1-4.4l3.2,0.8l-2.1,7.8l6.7,1.8     l-0.9,3.2l-6.7-1.8l-3.3,12.6c-0.5,1.9-0.7,3.3-0.4,4.1c0.2,0.8,0.8,1.3,1.8,1.5c1,0.3,1.9,0.3,2.6,0.2     C238.7,561.2,239.4,561,240.2,560.6z"></path>
			<path class="st2" d="M264.4,562.3l-3.8-2.4c0.9-1.5,1.8-2.7,2.7-3.7s1.9-1.8,3-2.3c1.1-0.5,2.5-0.7,4-0.6c1.4,0.1,2.7,0.5,3.9,1     c1.2,0.6,2.4,1.1,3.7,1.7c1.2,0.6,2.5,0.9,3.9,1c1.1,0.1,2-0.1,2.9-0.7c0.9-0.6,1.7-1.4,2.6-2.6l3.8,2.4     c-0.9,1.4-1.8,2.7-2.7,3.7c-0.9,1-1.9,1.8-3,2.3c-1.1,0.5-2.5,0.7-4,0.6c-1.4-0.1-2.7-0.5-3.9-1c-1.2-0.6-2.4-1.1-3.6-1.7     c-1.2-0.6-2.5-0.9-3.9-1c-1-0.1-2,0.1-2.9,0.7C266.1,560.2,265.3,561,264.4,562.3z"></path>
			<path class="st2" d="M302.4,573.9c-1.2,0-2.4-0.1-3.7-0.3c-1.2-0.3-2.2-0.7-3-1.4c-0.8-0.7-1.2-1.7-1.3-3c0-1.1,0.2-1.9,0.8-2.6     c0.6-0.7,1.4-1,2.4-1c0.9,0,1.5,0.2,2,0.5c0.5,0.4,0.9,0.9,1.2,1.4c0.3,0.6,0.6,1.2,0.8,1.8c0.2,0.6,0.5,1.1,0.8,1.5     c0.3,0.4,0.7,0.6,1.2,0.6c1,0,1.7-0.4,2-1.1c0.3-0.7,0.4-2.2,0.4-4.3l-0.7-20.8c0-1.5-0.2-2.6-0.4-3.4c-0.2-0.8-0.8-1.4-1.6-1.7     c-0.8-0.3-2.1-0.5-3.9-0.4l-0.1-2.4l19.3-0.6l0.1,2.4c-1.7,0.1-2.9,0.3-3.6,0.6s-1.2,1-1.3,1.8c-0.2,0.8-0.2,2-0.2,3.4l0.6,19     c0.1,2.1-0.2,3.9-0.9,5.2c-0.7,1.3-1.6,2.3-2.8,3.1c-1.2,0.7-2.5,1.2-4,1.5S303.8,573.8,302.4,573.9z"></path>
			<path class="st2" d="M338.3,570.8c-2.7,0.4-5,0.2-7-0.5c-2-0.7-3.6-2-4.9-3.9c-1.3-1.9-2.1-4.2-2.5-7.1c-0.5-3.1-0.2-5.8,0.7-8     s2.3-3.9,4.2-5.2c1.9-1.3,4-2.1,6.4-2.4c3.5-0.5,6.4,0.1,8.9,1.9c2.4,1.8,3.9,4.7,4.6,8.8l-17.4,2.5l-0.4-2.5l8.8-1.3     c-0.2-1.5-0.5-2.8-0.9-3.9s-0.9-1.9-1.5-2.4c-0.6-0.5-1.4-0.7-2.4-0.6c-1.7,0.2-2.7,1.1-3.2,2.7c-0.4,1.5-0.4,3.9,0.1,7.2     c0.4,2.4,0.9,4.2,1.7,5.5c0.8,1.3,1.7,2.2,2.9,2.6s2.6,0.5,4.2,0.3c1.4-0.2,2.6-0.5,3.6-1c1-0.4,1.8-1,2.5-1.7     c0.7-0.7,1.2-1.4,1.7-2.2l1.6,0.8c-0.4,1.1-0.9,2.3-1.4,3.4c-0.5,1.1-1.1,2.1-1.9,3.1c-0.8,0.9-1.8,1.8-3.1,2.5     C342,570,340.3,570.5,338.3,570.8z"></path>
			<path class="st2" d="M357.6,567.5l-2.8-10l2.4-0.6c1.1,2.4,2.4,4,3.7,5c1.3,1,3,1.2,4.9,0.7c1.3-0.3,2.2-0.8,2.9-1.5     c0.7-0.7,0.9-1.6,0.6-2.6c-0.1-0.6-0.4-1-0.9-1.4c-0.4-0.4-1.2-0.7-2.2-1.1c-1-0.3-2.5-0.6-4.4-1c-1.7-0.3-3.2-0.7-4.5-1.2     c-1.2-0.4-2.3-1.1-3.1-1.9c-0.8-0.8-1.4-2.1-1.8-3.6c-0.6-2.2-0.2-4.2,1.1-5.9c1.3-1.7,3.4-2.9,6.3-3.7c1.6-0.4,2.9-0.5,4.1-0.3     c1.1,0.2,2,0.4,2.5,0.5l0.2-0.1l0.5-1.5l2.2-0.6l2.4,8.6l-2.4,0.6c-1.4-2.4-2.7-3.9-4-4.6c-1.3-0.7-2.7-0.8-4.1-0.4     c-1.3,0.3-2.1,0.8-2.5,1.5c-0.4,0.7-0.5,1.4-0.3,2.2c0.3,1.1,1,1.8,2.2,2.1c1.2,0.3,2.8,0.6,4.9,1.1c1.7,0.3,3.3,0.7,4.7,1.1     c1.4,0.4,2.6,1,3.5,1.9c0.9,0.8,1.6,2.1,2,3.7c0.5,2,0.4,3.7-0.3,5.1c-0.7,1.4-1.8,2.5-3.3,3.4c-1.5,0.9-3.2,1.5-5,2     c-1.7,0.4-3,0.6-4,0.5c-1-0.1-1.9-0.2-2.7-0.4l-0.2,0.1l-0.8,1.8L357.6,567.5z"></path>
			<path class="st2" d="M394.4,556.4c-2.6,1-4.8,1.1-6.5,0.3c-1.8-0.8-3.3-2.9-4.7-6.3l-3.9-9.9c-0.4-1.1-0.8-1.8-1.2-2.2     c-0.4-0.4-0.9-0.5-1.5-0.4s-1.3,0.3-2.3,0.7l-0.8-2.1l8.3-4l2.4-1L390,546c0.6,1.6,1.2,2.7,1.8,3.4c0.6,0.7,1.2,1,1.9,1     c0.6,0,1.3-0.1,2.1-0.4c1.1-0.4,1.9-1,2.5-1.6c0.6-0.7,1.2-1.6,1.9-2.7l-4.6-11.8c-0.4-1-0.8-1.7-1.2-2s-1-0.4-1.7-0.3     s-1.6,0.4-2.7,0.9l-0.8-2.1l9.4-4.5l2.1-0.8l6.9,17.6c0.6,1.6,1.3,2.6,2,2.8s1.7,0.2,3.1-0.4l0.3-0.1l0.7,1.9l-8.4,5l-2,0.8     l-1.7-4.5l-0.2,0.1c-0.7,1.6-1.3,2.9-1.9,3.9c-0.6,1-1.3,1.9-2.1,2.5C396.6,555.4,395.6,556,394.4,556.4z"></path>
			<path class="st2" d="M420.1,545.6l-5.1-9l2.2-1.2c1.7,2,3.3,3.3,4.8,4c1.5,0.6,3.2,0.5,4.9-0.5c1.1-0.6,2-1.4,2.4-2.2     c0.5-0.8,0.5-1.7,0-2.6c-0.3-0.5-0.7-0.9-1.2-1.2c-0.5-0.3-1.3-0.4-2.4-0.5s-2.6,0-4.5,0.1c-1.8,0.1-3.3,0.1-4.6-0.1     c-1.3-0.1-2.5-0.5-3.5-1.1c-1-0.6-1.9-1.7-2.6-3.1c-1.1-2-1.2-4-0.4-6c0.8-2,2.6-3.7,5.2-5.1c1.4-0.8,2.7-1.2,3.9-1.3     c1.1-0.1,2-0.1,2.6-0.1l0.2-0.1l0.1-1.6l2-1.1l4.4,7.8l-2.2,1.2c-1.9-2-3.6-3.1-5-3.5c-1.4-0.3-2.8-0.2-4.1,0.6     c-1.1,0.6-1.8,1.3-2.1,2.1c-0.3,0.8-0.2,1.5,0.2,2.2c0.6,1,1.4,1.5,2.7,1.5c1.2,0,2.9-0.1,5.1-0.1c1.8-0.1,3.4-0.1,4.8-0.1     c1.5,0.1,2.7,0.4,3.9,1c1.1,0.6,2.1,1.6,2.9,3.1c1,1.8,1.3,3.5,0.9,5c-0.4,1.5-1.1,2.9-2.4,4.1c-1.2,1.2-2.7,2.2-4.4,3.2     c-1.5,0.8-2.7,1.3-3.7,1.4c-1,0.2-1.9,0.3-2.7,0.3l-0.2,0.1l-0.3,1.9L420.1,545.6z"></path>
			<path class="st2" d="M471.4,511.5l-14.1,11.9l-1.5-1.8c1.2-1,2-1.9,2.4-2.5c0.4-0.7,0.4-1.4,0.1-2.1c-0.4-0.7-1-1.7-2.1-3     l-13-15.5c-0.9-1.1-1.7-1.9-2.4-2.4c-0.7-0.5-1.4-0.7-2.2-0.5c-0.8,0.2-1.8,0.8-3.1,1.9l-1.5-1.8l14.3-12l1.5,1.8     c-1.3,1.1-2.1,2-2.4,2.7c-0.3,0.7-0.3,1.5,0.1,2.2c0.4,0.7,1,1.7,2,2.8l5.3,6.4l12.4-10.4l-5.3-6.4c-0.9-1.1-1.8-1.9-2.4-2.4     c-0.7-0.5-1.4-0.6-2.2-0.4c-0.8,0.2-1.8,0.8-3,1.9l-1.5-1.8l14.4-12.1l1.5,1.8c-1.3,1.1-2.1,2-2.4,2.7c-0.3,0.7-0.3,1.5,0,2.2     c0.4,0.7,1,1.7,2,2.8l13,15.5c1,1.2,1.9,2,2.6,2.5c0.7,0.5,1.4,0.6,2.1,0.3c0.7-0.3,1.7-0.9,2.9-2l1.5,1.8l-14.4,12.1l-1.5-1.8     c1.2-1.1,2.1-1.9,2.5-2.6c0.4-0.7,0.4-1.4,0-2.1c-0.4-0.7-1.1-1.7-2.1-2.9l-5.7-6.8l-12.4,10.4l5.7,6.8c1,1.2,1.9,2.1,2.5,2.6     c0.6,0.5,1.3,0.6,2.1,0.3c0.7-0.3,1.7-0.9,2.8-1.9L471.4,511.5z"></path>
			<path class="st2" d="M504,480.7c-1.8,2-3.7,3.4-5.7,4.2c-2,0.7-4.1,0.8-6.3,0.2s-4.3-1.8-6.5-3.7c-2.4-2.1-3.9-4.2-4.7-6.5     c-0.7-2.3-0.8-4.5-0.2-6.7c0.6-2.2,1.7-4.2,3.3-6c2.3-2.7,5-4.1,8-4.3c3-0.2,6.1,1,9.2,3.7l-11.6,13.3l-2-1.7l5.9-6.7     c-1.1-1-2.2-1.8-3.2-2.4c-1-0.6-1.9-0.9-2.7-0.9c-0.8,0-1.6,0.4-2.2,1.1c-1.1,1.3-1.3,2.6-0.6,4.1s2.3,3.2,4.7,5.4     c1.8,1.6,3.4,2.6,4.9,3.1c1.4,0.5,2.7,0.5,3.9,0.1c1.2-0.4,2.3-1.3,3.4-2.5c1-1.1,1.7-2.1,2.1-3.1c0.5-1,0.7-1.9,0.8-2.9     c0.1-0.9,0-1.9-0.1-2.8l1.7-0.4c0.4,1.1,0.8,2.3,1.1,3.5c0.3,1.2,0.5,2.4,0.6,3.6c0,1.2-0.2,2.5-0.8,3.9     C506.3,477.6,505.4,479.1,504,480.7z"></path>
			<path class="st2" d="M520.5,460c-1.1,1.7-2.5,2.8-4,3.3c-1.5,0.5-3.2,0.2-5.1-1.1c-1.3-0.9-2.2-1.9-2.6-3     c-0.5-1.1-0.7-2.4-0.7-3.6c0-1.3,0.2-2.6,0.6-3.9c0.4-1.3,0.8-2.6,1.2-3.9c0.5-1.3,0.9-2.4,1.2-3.4l-2.2-1.5     c-1.9-1.3-3.3-2-4.2-2s-1.7,0.5-2.4,1.7c-0.6,0.9-0.8,1.7-0.6,2.3c0.2,0.6,1,1.4,2.3,2.2c1,0.7,1.6,1.5,1.6,2.4     c0,0.9-0.2,1.8-0.8,2.6c-0.5,0.7-1.1,1.1-2.1,1.4c-0.9,0.3-1.9,0-2.9-0.7c-0.9-0.6-1.5-1.5-1.8-2.8c-0.3-1.2-0.2-2.7,0.2-4.3     c0.4-1.6,1.2-3.3,2.4-5.1c2-2.9,4-4.7,6.1-5.5c2.1-0.8,4.5-0.3,7,1.4l9.9,6.7c0.9,0.6,1.6,0.9,2,0.9c0.4,0,0.8-0.3,1.1-0.8     c0.3-0.4,0.4-0.8,0.4-1.4c0-0.5,0-1.1-0.1-1.7l1.7-0.3c0.6,1.5,0.9,3,0.9,4.4c0,1.4-0.5,2.9-1.7,4.7c-1.1,1.7-2.1,2.6-3,2.8     c-0.9,0.2-2.1,0-3.4-0.7l-1.1-0.4l-7.5-5.1c-0.5,1.4-0.7,2.7-0.9,3.8c-0.1,1.1,0,2.1,0.4,2.9c0.4,0.9,1.2,1.7,2.3,2.5     c1.1,0.8,2.1,1.1,2.8,1.1c0.8,0,1.4-0.4,1.9-1.1c0.5-0.7,0.7-1.4,0.8-2.2c0.1-0.8-0.1-1.9-0.3-3.3l2.7,1.5l-0.5,0.7     c0.1,1.1,0.2,2.2,0.2,3c0.1,0.9,0,1.7-0.3,2.5C521.7,457.9,521.2,458.9,520.5,460z"></path>
			<path class="st2" d="M541.2,424.6l-7.9,14.5l-1.9-1.1c0.6-1.1,0.9-1.9,1-2.5c0.1-0.6-0.1-1.1-0.6-1.6c-0.4-0.4-1.1-0.9-2-1.4     l-23.3-12.7c-0.9-0.5-1.6-0.6-2.1-0.2c-0.5,0.4-0.9,0.9-1.2,1.5c-0.2,0.4-0.5,0.9-0.7,1.6l-1.9-1.1l2.7-8.5l1.8-3.2l28.7,15.6     c0.9,0.5,1.7,0.8,2.3,0.9c0.6,0.1,1.2,0,1.6-0.5c0.5-0.4,1.1-1.3,1.7-2.4L541.2,424.6z"></path>
			<path class="st2" d="M544.3,419.8l-9.6-3.9l1-2.2c2.6,0.5,4.6,0.6,6.2,0.2s2.8-1.6,3.6-3.4c0.5-1.2,0.7-2.3,0.6-3.2     c-0.1-1-0.7-1.7-1.6-2.1c-0.5-0.2-1.1-0.3-1.7-0.2c-0.6,0.1-1.3,0.5-2.2,1.1c-0.9,0.6-2,1.6-3.4,2.8c-1.3,1.2-2.6,2.1-3.7,2.8     c-1.1,0.7-2.2,1.1-3.4,1.2c-1.2,0.1-2.5-0.1-4-0.8c-2.1-0.9-3.5-2.4-4-4.5c-0.6-2.1-0.2-4.5,0.9-7.2c0.6-1.5,1.4-2.6,2.2-3.4     c0.8-0.8,1.5-1.3,2-1.6l0.1-0.2l-0.9-1.3l0.9-2.1l8.3,3.4l-1,2.2c-2.7-0.4-4.7-0.3-6.1,0.3c-1.3,0.6-2.3,1.6-2.9,3     c-0.5,1.2-0.6,2.2-0.3,2.9c0.3,0.8,0.8,1.3,1.5,1.6c1.1,0.5,2.1,0.3,3-0.4c0.9-0.8,2.2-1.8,3.9-3.2c1.3-1.2,2.6-2.2,3.7-3     c1.2-0.8,2.4-1.4,3.6-1.6s2.6,0,4.1,0.6c1.9,0.8,3.2,1.9,3.8,3.4c0.7,1.4,0.9,3,0.6,4.7c-0.2,1.7-0.7,3.4-1.5,5.2     c-0.7,1.6-1.4,2.7-2,3.4c-0.7,0.7-1.3,1.4-2,1.9l-0.1,0.2l0.9,1.7L544.3,419.8z"></path>
		</g>
	</g>
	<g>
		<g class="st3">
			<path class="st4" d="M58.1,425.5l-2.3-4.3l20.1-23.8c1.4-1.6,2.3-2.9,2.6-3.8c0.3-0.9,0.3-2-0.2-3.2l2.1-1.1l8,15.2l-2.1,1.1     c-0.6-1.2-1.2-2-1.7-2.3c-0.5-0.3-1-0.3-1.5,0c-0.6,0.3-1.3,0.9-2.1,1.7l-10.5,12.5l-3.2,3.3l0.2,0.3l16.7-1.6l-4.3,5l-0.6-1.1     L58.1,425.5z M67.8,444.2l-2.4-4.6l15.6-17.3l1.3-1.4l3.8-4.1c1.1-1.2,1.9-2.2,2.4-2.9c0.5-0.7,0.7-1.4,0.6-2     c-0.1-0.6-0.3-1.4-0.8-2.3l2.1-1.1l8,15.4l-2.1,1.1c-1.3-2.4-2.5-3.3-3.8-2.7c-0.4,0.2-0.7,0.5-1.1,0.9c-0.4,0.4-0.8,0.8-1.3,1.3     l-10,11.2l-3.3,3.3l0.2,0.3l18-2.9c0.8-0.1,1.5-0.3,2.1-0.4c0.6-0.2,1.1-0.3,1.5-0.6c1.1-0.6,1.6-1.3,1.6-2.1     c-0.1-0.8-0.3-1.7-0.8-2.6l2.1-1.1l5.8,11.1l-2.1,1.1c-0.6-1.1-1.3-1.8-2.1-2.1c-0.8-0.3-1.9-0.3-3.4-0.1L67.8,444.2z"></path>
			<path class="st4" d="M87.2,472.3c-1.7-2.1-2.7-4.3-3-6.4c-0.3-2.1,0-4.2,1-6.2c1-2,2.6-3.9,4.9-5.7c2.5-1.9,4.9-3.1,7.3-3.3     c2.4-0.3,4.5,0.1,6.6,1c2,1,3.8,2.4,5.3,4.3c2.2,2.8,3.1,5.7,2.7,8.6c-0.4,3-2.1,5.8-5.4,8.3l-10.8-13.9l2-1.6l5.5,7     c1.2-0.9,2.2-1.8,2.9-2.7c0.8-0.9,1.2-1.7,1.4-2.5s-0.1-1.6-0.7-2.4c-1-1.3-2.3-1.8-3.9-1.4c-1.5,0.4-3.6,1.6-6.2,3.6     c-1.9,1.5-3.2,2.9-4,4.2c-0.8,1.3-1,2.6-0.8,3.8c0.2,1.2,0.8,2.5,1.8,3.8c0.9,1.1,1.8,2,2.6,2.6c0.9,0.6,1.7,1.1,2.7,1.3     c0.9,0.2,1.8,0.4,2.8,0.4l0.1,1.8c-1.2,0.2-2.4,0.3-3.6,0.5c-1.2,0.1-2.4,0.1-3.6-0.1c-1.2-0.2-2.4-0.7-3.7-1.5     C89.7,475.2,88.5,474,87.2,472.3z"></path>
			<path class="st4" d="M130.1,515.4l-14.4-12.5l1.6-1.8c1.2,1.1,2.2,1.8,2.9,2.1c0.7,0.3,1.5,0.3,2.2-0.2c0.7-0.5,1.6-1.3,2.7-2.5     l16.4-18.9l-1.9-1.6c-1.5-1.3-2.9-2.2-3.9-2.5c-1.1-0.3-2.2-0.2-3.2,0.4c-1.1,0.6-2.4,1.5-4,2.7l-2.1-1.8l7.6-7.8l25.6,22.2     l-6.8,8.5l-2.1-1.8c1-1.8,1.7-3.2,2.1-4.4c0.4-1.2,0.4-2.3-0.1-3.3c-0.4-1-1.5-2.2-3-3.6l-1.8-1.6l-16.4,18.9     c-1.1,1.2-1.8,2.3-2.1,3c-0.3,0.8-0.3,1.5,0.1,2.2c0.4,0.7,1.2,1.5,2.4,2.5L130.1,515.4z"></path>
			<path class="st4" d="M155.3,533.3l-14.5-9.7l1.2-1.8c1,0.7,1.8,1.1,2.4,1.2c0.6,0.2,1.1,0,1.6-0.3c0.5-0.4,1-1,1.5-1.8l7.5-11.2     c0.5-0.8,0.8-1.5,0.9-2.1s-0.3-1.2-1.1-1.7c-0.5-0.3-1-0.6-1.5-0.9l1.3-2l8.2,3.4l2.6,1.8l-3.2,4.8l0.2,0.1     c1.5-0.5,2.8-1,3.9-1.4c1-0.4,2-0.6,2.8-0.6c0.9,0,1.8,0.3,2.7,1c1.2,0.8,1.9,1.7,2,2.8c0.1,1.1-0.2,2.2-1,3.3     c-0.9,1.3-1.8,2.1-2.8,2.3c-1,0.2-1.8,0-2.5-0.4c-0.7-0.5-1.2-1-1.4-1.6c-0.3-0.6-0.5-1.2-0.6-1.8c-0.1-0.5-0.3-0.9-0.6-1.1     c-0.5-0.3-1.1-0.5-1.9-0.4c-0.8,0-1.6,0.2-2.5,0.5l-6.3,9.4c-0.7,1-1,1.8-1,2.5c0,0.7,0.2,1.4,0.8,2c0.6,0.6,1.4,1.3,2.4,2     L155.3,533.3z"></path>
			<path class="st4" d="M175.8,545.7c-2.4-1.2-4.2-2.8-5.4-4.5c-1.2-1.8-1.8-3.8-1.7-6c0.1-2.2,0.7-4.7,2.1-7.2     c1.4-2.8,3.2-4.8,5.2-6.1s4.2-1.8,6.4-1.8c2.3,0,4.4,0.6,6.6,1.7c3.1,1.6,5.2,3.9,6.1,6.7c0.9,2.9,0.5,6.1-1.4,9.8l-15.6-8.1     l1.1-2.3l7.9,4.1c0.7-1.3,1.2-2.6,1.5-3.7c0.3-1.1,0.4-2.1,0.2-2.9c-0.2-0.8-0.7-1.4-1.6-1.9c-1.5-0.8-2.9-0.7-4.1,0.3     c-1.2,1-2.6,3-4.1,5.9c-1.1,2.1-1.7,4-1.9,5.5c-0.1,1.5,0.1,2.8,0.8,3.8c0.7,1,1.8,1.9,3.2,2.7c1.3,0.7,2.4,1.1,3.5,1.3     c1,0.2,2,0.2,3,0.1c0.9-0.2,1.8-0.4,2.7-0.8l0.8,1.5c-1,0.7-2,1.3-3.1,1.9c-1,0.6-2.2,1.1-3.4,1.4c-1.2,0.3-2.5,0.4-4,0.2     C179.3,547.2,177.6,546.7,175.8,545.7z"></path>
			<path class="st4" d="M199.8,556.7c-1.9-0.7-3.3-1.8-4.2-3.1c-0.9-1.4-0.9-3.1-0.2-5.2c0.5-1.4,1.3-2.5,2.3-3.3s2.1-1.3,3.4-1.5     c1.3-0.3,2.6-0.4,3.9-0.4c1.4,0,2.7,0.1,4.1,0.3c1.3,0.1,2.5,0.3,3.6,0.4l0.9-2.5c0.8-2.2,1.1-3.7,0.9-4.6     c-0.2-0.8-0.9-1.5-2.2-2c-1-0.4-1.8-0.4-2.4-0.1c-0.5,0.3-1.1,1.3-1.6,2.7c-0.4,1.2-1.1,1.9-2,2.1c-0.9,0.3-1.8,0.2-2.7-0.1     c-0.8-0.3-1.4-0.8-1.8-1.7c-0.5-0.8-0.5-1.8,0-3c0.4-1,1.1-1.8,2.3-2.4c1.1-0.6,2.5-0.9,4.2-0.8c1.7,0,3.5,0.4,5.5,1.2     c3.3,1.2,5.5,2.8,6.8,4.7c1.3,1.9,1.4,4.3,0.3,7.1l-4.2,11.2c-0.4,1-0.5,1.7-0.4,2.2c0.1,0.4,0.5,0.7,1.1,0.9     c0.4,0.2,0.9,0.2,1.4,0.1c0.5-0.1,1.1-0.3,1.6-0.5l0.7,1.6c-1.3,0.9-2.7,1.6-4,2c-1.3,0.4-3,0.2-4.9-0.6c-1.9-0.7-3-1.5-3.5-2.3     c-0.4-0.8-0.5-2-0.1-3.5l0.1-1.1l3.2-8.6c-1.5-0.1-2.8-0.1-3.9,0c-1.1,0.1-2,0.5-2.8,1c-0.8,0.6-1.4,1.5-1.9,2.8     c-0.5,1.3-0.6,2.3-0.4,3c0.2,0.7,0.7,1.2,1.5,1.5c0.8,0.3,1.5,0.4,2.3,0.2c0.8-0.1,1.8-0.5,3.1-1.1l-0.8,3l-0.8-0.3     c-1.1,0.4-2.1,0.7-2.9,0.9c-0.8,0.3-1.7,0.4-2.5,0.4C202,557.4,201,557.2,199.8,556.7z"></path>
			<path class="st4" d="M243,563.1l1,1.8c-1,0.8-1.9,1.5-2.9,2.1c-1,0.6-2.1,1-3.4,1.1c-1.3,0.2-2.9,0-4.8-0.5     c-2.1-0.5-3.5-1.5-4.3-2.9c-0.8-1.4-0.8-3.6,0-6.7l3.7-14.4l-3.4-0.9l0.6-2.2c1.7-0.5,3.5-1.3,5.2-2.3c1.7-1,3.4-2.5,5-4.5     l3.2,0.8l-2,7.8l6.7,1.7l-0.8,3.2l-6.7-1.7l-3.2,12.6c-0.5,2-0.6,3.3-0.4,4.1c0.2,0.8,0.8,1.3,1.8,1.5c1,0.3,1.9,0.3,2.6,0.2     C241.5,563.7,242.2,563.4,243,563.1z"></path>
			<path class="st4" d="M267.2,564.6l-3.8-2.4c0.9-1.5,1.8-2.7,2.7-3.8c0.9-1,1.9-1.8,3-2.3c1.1-0.5,2.5-0.7,4-0.6     c1.4,0.1,2.7,0.5,3.9,1c1.2,0.6,2.4,1.1,3.7,1.7c1.2,0.6,2.5,0.9,3.9,1c1.1,0.1,2-0.2,2.9-0.7c0.8-0.6,1.7-1.4,2.5-2.6l3.8,2.4     c-0.9,1.4-1.8,2.7-2.7,3.7c-0.9,1-1.9,1.8-3,2.3c-1.1,0.5-2.5,0.7-4,0.6c-1.4-0.1-2.7-0.5-3.9-1c-1.2-0.6-2.4-1.1-3.7-1.7     c-1.2-0.6-2.5-0.9-3.9-1c-1-0.1-2,0.1-2.9,0.7S268.1,563.4,267.2,564.6z"></path>
			<path class="st4" d="M305.3,576c-1.2,0-2.4-0.1-3.7-0.3c-1.2-0.2-2.2-0.7-3-1.4c-0.8-0.7-1.2-1.7-1.3-3c0-1.1,0.2-1.9,0.8-2.6     c0.6-0.7,1.4-1,2.4-1.1c0.9,0,1.5,0.1,2.1,0.5s0.9,0.9,1.2,1.4s0.6,1.2,0.8,1.8c0.2,0.6,0.5,1.1,0.8,1.5s0.7,0.6,1.2,0.6     c1,0,1.7-0.4,2-1.2c0.3-0.7,0.4-2.2,0.3-4.3l-0.8-20.8c-0.1-1.5-0.2-2.6-0.5-3.4c-0.3-0.8-0.8-1.4-1.6-1.7     c-0.8-0.3-2.1-0.4-3.9-0.4l-0.1-2.4l19.3-0.7l0.1,2.4c-1.7,0.1-2.9,0.3-3.6,0.7c-0.7,0.4-1.2,1-1.3,1.8c-0.2,0.8-0.2,2-0.1,3.4     l0.7,19c0.1,2.1-0.2,3.9-0.9,5.2c-0.7,1.3-1.6,2.4-2.8,3.1c-1.2,0.7-2.5,1.2-4,1.5C308.1,575.8,306.7,575.9,305.3,576z"></path>
			<path class="st4" d="M341.1,572.8c-2.7,0.4-5,0.2-7-0.5c-2-0.7-3.6-2-4.9-3.9c-1.3-1.8-2.1-4.2-2.6-7.1c-0.5-3.1-0.3-5.8,0.6-8     c0.9-2.2,2.3-3.9,4.1-5.2c1.9-1.3,4-2.1,6.4-2.5c3.5-0.5,6.4,0.1,8.9,1.9c2.4,1.8,4,4.7,4.6,8.8l-17.4,2.6l-0.4-2.5l8.8-1.3     c-0.2-1.5-0.5-2.8-0.9-3.9s-0.9-1.9-1.5-2.4c-0.6-0.5-1.4-0.7-2.4-0.6c-1.7,0.3-2.7,1.2-3.1,2.7c-0.4,1.5-0.4,3.9,0.1,7.2     c0.4,2.4,0.9,4.2,1.7,5.5c0.8,1.3,1.7,2.2,2.9,2.6c1.2,0.4,2.6,0.5,4.2,0.3c1.4-0.2,2.6-0.5,3.6-1c1-0.4,1.8-1,2.4-1.7     c0.7-0.7,1.2-1.4,1.7-2.2l1.6,0.8c-0.4,1.1-0.9,2.3-1.4,3.4c-0.5,1.1-1.1,2.1-1.9,3.1c-0.8,1-1.8,1.8-3.1,2.5     C344.8,571.9,343.1,572.4,341.1,572.8z"></path>
			<path class="st4" d="M360.4,569.4l-2.9-10l2.4-0.6c1.2,2.4,2.4,4,3.7,5c1.3,1,3,1.2,4.9,0.7c1.3-0.3,2.2-0.8,2.9-1.6     c0.7-0.7,0.9-1.6,0.6-2.6c-0.2-0.6-0.4-1-0.9-1.4c-0.4-0.4-1.2-0.7-2.2-1c-1-0.3-2.5-0.6-4.4-1c-1.7-0.3-3.2-0.7-4.5-1.2     c-1.2-0.4-2.3-1.1-3.1-1.9c-0.8-0.8-1.4-2-1.8-3.6c-0.6-2.2-0.2-4.2,1-5.9c1.3-1.7,3.4-3,6.3-3.7c1.6-0.4,2.9-0.5,4.1-0.3     c1.1,0.2,2,0.4,2.5,0.5l0.2-0.1l0.5-1.5l2.2-0.6l2.4,8.6l-2.4,0.6c-1.4-2.4-2.7-3.9-4-4.5c-1.3-0.7-2.7-0.8-4.1-0.4     c-1.3,0.3-2.1,0.8-2.5,1.5s-0.5,1.4-0.3,2.2c0.3,1.1,1,1.8,2.2,2.1c1.2,0.3,2.8,0.6,4.9,1.1c1.7,0.3,3.3,0.7,4.7,1.1     c1.4,0.4,2.6,1,3.5,1.9c0.9,0.8,1.6,2,2.1,3.6c0.5,2,0.4,3.7-0.3,5.1c-0.7,1.4-1.8,2.5-3.3,3.4c-1.5,0.9-3.2,1.5-5,2     c-1.7,0.4-3,0.6-3.9,0.5c-1-0.1-1.9-0.2-2.7-0.4l-0.2,0.1l-0.8,1.8L360.4,569.4z"></path>
			<path class="st4" d="M397.2,558.1c-2.6,1-4.8,1.1-6.5,0.3c-1.8-0.8-3.3-2.9-4.7-6.3l-3.9-9.9c-0.4-1.1-0.8-1.8-1.2-2.2     c-0.4-0.4-0.9-0.5-1.5-0.4s-1.3,0.3-2.3,0.7l-0.8-2.1l8.3-4.1l2.4-1l5.8,14.5c0.6,1.6,1.3,2.7,1.9,3.4c0.6,0.7,1.2,1,1.9,1     c0.6,0,1.3-0.1,2.1-0.4c1.1-0.4,1.9-1,2.5-1.7c0.6-0.7,1.2-1.6,1.8-2.7l-4.7-11.8c-0.4-1-0.8-1.7-1.2-2s-1-0.4-1.7-0.3     c-0.7,0.2-1.6,0.5-2.7,0.9l-0.8-2.1l9.4-4.5l2.1-0.8l7,17.5c0.6,1.6,1.3,2.5,2,2.8c0.7,0.3,1.7,0.2,3.1-0.4l0.3-0.1l0.8,1.9     l-8.4,5l-2,0.8l-1.8-4.4L404,550c-0.6,1.6-1.3,2.9-1.9,3.9c-0.6,1-1.3,1.9-2.1,2.5S398.3,557.6,397.2,558.1z"></path>
			<path class="st4" d="M422.8,547.1l-5.2-9l2.1-1.2c1.7,2,3.3,3.3,4.8,3.9c1.5,0.6,3.2,0.5,4.9-0.5c1.1-0.6,2-1.4,2.4-2.2     c0.5-0.9,0.5-1.7,0-2.6c-0.3-0.5-0.7-0.9-1.2-1.2c-0.5-0.3-1.3-0.4-2.4-0.5c-1.1,0-2.6,0-4.5,0.1c-1.8,0.1-3.3,0.1-4.6,0     c-1.3-0.1-2.5-0.5-3.5-1.1c-1-0.6-1.9-1.6-2.7-3.1c-1.1-2-1.3-4-0.4-6c0.8-2,2.5-3.7,5.2-5.1c1.4-0.8,2.7-1.2,3.9-1.3     c1.1-0.1,2-0.1,2.6-0.1l0.2-0.1l0.1-1.6l2-1.1l4.5,7.8l-2.1,1.2c-1.9-2-3.6-3.1-5-3.4s-2.8-0.1-4.1,0.6c-1.1,0.6-1.8,1.3-2.1,2.1     c-0.2,0.8-0.2,1.5,0.2,2.2c0.6,1,1.5,1.5,2.7,1.5c1.2,0,2.9-0.1,5.1-0.2c1.8-0.1,3.4-0.2,4.8-0.1c1.5,0.1,2.7,0.4,3.9,1     c1.1,0.6,2.1,1.6,2.9,3c1,1.8,1.3,3.5,1,5c-0.3,1.5-1.1,2.9-2.4,4.1c-1.2,1.2-2.7,2.3-4.4,3.2c-1.5,0.8-2.7,1.3-3.7,1.5     c-1,0.2-1.9,0.3-2.7,0.3l-0.2,0.1l-0.3,1.9L422.8,547.1z"></path>
			<path class="st4" d="M473.9,512.7l-14.1,12l-1.5-1.8c1.2-1,2-1.9,2.4-2.5c0.4-0.7,0.4-1.4,0-2.1c-0.4-0.7-1.1-1.7-2.1-2.9     l-13.1-15.4c-0.9-1.1-1.7-1.9-2.4-2.4c-0.7-0.5-1.4-0.7-2.2-0.5c-0.8,0.2-1.8,0.8-3.1,1.9l-1.5-1.8l14.2-12.1l1.5,1.8     c-1.3,1.1-2.1,2-2.4,2.7c-0.3,0.7-0.3,1.5,0.1,2.2c0.4,0.7,1,1.7,2,2.8l5.4,6.3l12.3-10.5l-5.4-6.3c-0.9-1.1-1.8-1.9-2.4-2.4     c-0.7-0.5-1.4-0.6-2.2-0.4s-1.8,0.8-3,1.9l-1.5-1.8l14.3-12.2l1.5,1.8c-1.3,1.1-2.1,2-2.4,2.7c-0.3,0.7-0.3,1.5,0.1,2.2     c0.4,0.7,1,1.7,2,2.8l13.1,15.4c1,1.2,1.9,2,2.6,2.5s1.4,0.6,2.1,0.3c0.7-0.3,1.7-0.9,2.9-2l1.5,1.8l-14.3,12.2l-1.5-1.8     c1.2-1.1,2.1-1.9,2.5-2.6c0.4-0.7,0.4-1.4,0-2.1s-1.1-1.7-2.1-2.9l-5.7-6.7l-12.3,10.5l5.7,6.7c1,1.2,1.9,2.1,2.5,2.6     c0.7,0.5,1.3,0.6,2.1,0.3c0.7-0.3,1.7-0.9,2.8-1.9L473.9,512.7z"></path>
			<path class="st4" d="M506.3,481.7c-1.8,2.1-3.7,3.5-5.7,4.2c-2,0.7-4.1,0.8-6.3,0.3c-2.2-0.6-4.3-1.8-6.5-3.7     c-2.4-2.1-4-4.2-4.7-6.5c-0.7-2.3-0.8-4.5-0.3-6.7c0.6-2.2,1.6-4.2,3.2-6c2.3-2.7,4.9-4.1,7.9-4.4c3-0.2,6.1,1,9.2,3.7L491.8,476     l-2-1.6l5.8-6.7c-1.1-1-2.2-1.8-3.2-2.3c-1-0.6-1.9-0.9-2.7-0.9c-0.8,0-1.6,0.4-2.2,1.1c-1.1,1.3-1.3,2.7-0.6,4.1     c0.7,1.4,2.3,3.2,4.8,5.4c1.8,1.6,3.5,2.6,4.9,3.1c1.4,0.5,2.7,0.5,3.9,0.1c1.2-0.4,2.3-1.3,3.4-2.5c0.9-1.1,1.6-2.1,2.1-3.1     c0.4-1,0.7-1.9,0.8-2.9c0.1-0.9,0-1.9-0.2-2.8l1.7-0.4c0.4,1.1,0.8,2.3,1.2,3.5c0.4,1.2,0.5,2.4,0.6,3.6c0,1.2-0.2,2.5-0.7,3.9     C508.6,478.7,507.7,480.1,506.3,481.7z"></path>
			<path class="st4" d="M522.7,460.9c-1.1,1.7-2.5,2.8-4,3.4c-1.5,0.5-3.2,0.2-5.1-1c-1.3-0.9-2.2-1.9-2.7-3     c-0.5-1.1-0.7-2.3-0.7-3.6c0-1.3,0.2-2.6,0.6-3.9c0.3-1.3,0.7-2.6,1.2-3.9c0.5-1.3,0.8-2.4,1.2-3.4l-2.2-1.5     c-1.9-1.3-3.4-2-4.2-2c-0.9,0-1.7,0.6-2.4,1.7c-0.6,0.9-0.8,1.7-0.6,2.3c0.2,0.6,1,1.4,2.3,2.2c1,0.7,1.6,1.5,1.6,2.4     c0,0.9-0.2,1.8-0.7,2.6c-0.5,0.7-1.1,1.1-2,1.4s-1.9,0-2.9-0.7c-0.9-0.6-1.5-1.5-1.8-2.8c-0.3-1.2-0.2-2.7,0.2-4.3     c0.4-1.6,1.2-3.3,2.4-5.1c1.9-2.9,4-4.7,6.1-5.5c2.1-0.8,4.5-0.4,7,1.3l9.9,6.7c0.9,0.6,1.6,0.9,2,0.9c0.4,0,0.8-0.3,1.1-0.8     c0.2-0.4,0.4-0.8,0.4-1.4c0-0.5,0-1.1-0.1-1.7l1.7-0.3c0.6,1.5,0.9,3,1,4.4c0,1.4-0.5,2.9-1.7,4.7c-1.1,1.7-2.1,2.6-3,2.8     c-0.9,0.2-2.1,0-3.5-0.7l-1.1-0.4l-7.6-5.1c-0.4,1.4-0.7,2.7-0.9,3.8c-0.1,1.1,0,2.1,0.4,2.9c0.4,0.9,1.2,1.7,2.3,2.5     c1.1,0.8,2.1,1.1,2.8,1.1c0.8,0,1.4-0.4,1.8-1.1c0.5-0.7,0.7-1.4,0.8-2.2c0.1-0.8-0.1-1.9-0.4-3.3l2.7,1.4l-0.5,0.7     c0.1,1.1,0.2,2.2,0.3,3c0.1,0.9,0,1.7-0.2,2.5C523.9,458.9,523.4,459.8,522.7,460.9z"></path>
			<path class="st4" d="M543.2,425.5l-7.8,14.5l-1.9-1c0.6-1.1,0.9-1.9,1-2.5c0.1-0.6-0.1-1.1-0.6-1.6s-1.1-0.9-2-1.3l-23.4-12.6     c-0.9-0.5-1.6-0.6-2.1-0.2c-0.5,0.4-0.9,0.9-1.2,1.5c-0.2,0.4-0.5,0.9-0.7,1.6l-1.9-1l2.6-8.5l1.7-3.2l28.8,15.5     c0.9,0.5,1.7,0.8,2.3,0.9c0.6,0.1,1.2-0.1,1.6-0.5c0.5-0.5,1.1-1.3,1.7-2.4L543.2,425.5z"></path>
			<path class="st4" d="M546.3,420.7l-9.6-3.9l1-2.3c2.6,0.5,4.6,0.6,6.2,0.1s2.8-1.6,3.6-3.4c0.5-1.2,0.7-2.3,0.5-3.2     c-0.1-1-0.7-1.7-1.6-2.1c-0.5-0.2-1.1-0.3-1.7-0.2s-1.3,0.5-2.2,1.1c-0.9,0.6-2,1.6-3.4,2.9c-1.3,1.2-2.6,2.1-3.7,2.8     c-1.1,0.7-2.2,1.1-3.4,1.3c-1.2,0.1-2.5-0.1-4-0.8c-2.1-0.9-3.5-2.4-4.1-4.5c-0.6-2.1-0.3-4.5,0.9-7.2c0.6-1.5,1.4-2.6,2.2-3.4     c0.8-0.8,1.5-1.3,2-1.6l0.1-0.2l-0.9-1.3l0.9-2.1l8.3,3.4l-1,2.3c-2.7-0.4-4.7-0.2-6.1,0.4c-1.3,0.6-2.3,1.6-2.9,3     c-0.5,1.2-0.6,2.2-0.3,2.9c0.3,0.8,0.8,1.3,1.5,1.6c1.1,0.5,2.1,0.3,3-0.5c0.9-0.8,2.2-1.9,3.9-3.3c1.3-1.2,2.5-2.2,3.7-3     c1.2-0.8,2.4-1.4,3.6-1.6c1.2-0.2,2.6,0,4.1,0.6c1.9,0.8,3.2,1.9,3.8,3.3s0.9,3,0.7,4.7s-0.7,3.4-1.5,5.2c-0.7,1.6-1.3,2.7-2,3.4     c-0.7,0.7-1.3,1.4-2,1.9l-0.1,0.2l0.9,1.7L546.3,420.7z"></path>
		</g>
	</g>
</g>
<g id="Kenya">
	<path class="st5" d="M168.2,203.3h-2.4c-0.8,0-1.5-0.5-1.8-1.2l-1.4-3.3c-0.1-0.2-0.2-0.5-0.2-0.8V193c0-0.5,0.2-1.1,0.6-1.4l3.1-3   c0.1-0.1,0.2-0.2,0.3-0.2l3.7-2.4l28.5-17.2c0,0,8.1-5.7,13.4,0c4.3,4.6,8.6,7.7,10.1,8.7c0.4,0.2,0.8,0.4,1.2,0.3l16.7-1.2   c0.1,0,0.3,0,0.4,0l6.3,0.8c0,0,0.1,0,0.1,0c0.8,0.1,14.2,1.1,23.4,12.4c0.1,0.1,0.1,0.2,0.2,0.2c1.6,1.4,20,16.9,36.4,19.8   c17.2,2.9,20.9,3.4,20.9,3.4s32.5,4.1,43.4-6.4c0.1-0.1,0.2-0.2,0.3-0.3l3.7-2.2c0.2-0.1,0.3-0.2,0.4-0.4l3.9-4.3l7.3-7.7   c0,0,0.1-0.1,0.1-0.2c0.6-0.8,7.1-8.6,18.9-1.8c0.2,0.1,0.4,0.2,0.5,0.4c1.5,1.7,11,11.1,23.3,2.5c0.2-0.2,0.5-0.3,0.8-0.3   c1.4-0.2,5.1-0.6-0.4,4.6c-6.6,6.2-12.7,12.7-12.7,12.7l-4.1,4.1c0,0-5.3,3.7-7.4,22.1c0,0.1,0,0.2,0,0.2v30.7v12.3l0.4,30.1   l1.2,19.2l0.8,13.2c0,0.1,0,0.1,0,0.2l1.6,9.1c0,0.1,0,0.1,0,0.2c0.1,1.2,2.1,18.4,22.8,20.8c0.2,0,0.3,0.1,0.4,0.1   c1.4,0.6,9.1,4-0.2,10.4c-7.2,5-9.4,6-10.1,6.1c-0.3,0.1-0.6,0.2-0.8,0.4l-3.5,2.9c-0.1,0.1-0.2,0.1-0.2,0.2   c-0.8,0.9-5.2,6-6.2,10.4c-1.1,4.8-4.6,7.7-4.6,7.7s-2.7,5.1-10.4,4.2c-0.1,0-0.2,0-0.2,0l-6.2,0.1c0,0-7.1,0.1-6.9,9.5   c0.1,6.6-0.3,8.6-0.6,9.1c-0.1,0.3-0.2,0.5-0.2,0.8l-0.2,4.2c0,0.1,0,0.3-0.1,0.4l-0.9,3.5c0,0.1,0,0.1-0.1,0.2l-1.1,2.9   c0,0.1,0,0.1-0.1,0.2l-1.5,5.8c0,0.1,0,0.1,0,0.2l-4.1,11.9c0,0.1-0.1,0.2-0.1,0.2l-5.2,10.5c0,0.1-0.1,0.2-0.1,0.2l-3.5,5.2   c0,0-0.1,0.1-0.1,0.1l-2.4,4.2c0,0.1-0.1,0.2-0.2,0.2c-1,1.2-8.9,10.6-23.1-0.1c-12.8-9.7-16.3-11.6-17-12   c-0.1-0.1-0.3-0.1-0.4-0.2l-9.1-7.3c0,0-0.1-0.1-0.1-0.1l-9.8-6.8c-0.1,0-0.1-0.1-0.2-0.1l-4.8-4.2c-0.1-0.1-0.2-0.1-0.3-0.2   c-1-0.6-7.3-5.1,1.3-9.5c9.3-4.8-14-15.3-14-15.3l-7.8-3.1c0,0-0.1,0-0.1-0.1l-11.8-5.7l-26.8-12.8l-10.3-4.4l-8-3.4   c0,0-0.1,0-0.1,0l-9.1-4.6l-8.1-4.4c0,0-0.1,0-0.1-0.1l-8.4-5.2c0,0-0.1-0.1-0.1-0.1l-7-5.3l-12.1-9.4c-0.1-0.1-0.2-0.1-0.2-0.2   l-5.6-6.1c0,0-6.3-6.5-2.6-29.2c0-0.2,0.1-0.4,0.2-0.6l2.4-4.7l1.8-3.3c0.1-0.1,0.1-0.2,0.2-0.4l0.9-2.8c0,0,0-0.1,0.1-0.1l0.8-2.1   c0.1-0.2,0.1-0.3,0.1-0.5l0.9-6.5c0-0.1,0.1-0.3,0.1-0.4l1.7-4.6c0.1-0.1,0.1-0.3,0.2-0.4l1.1-1.7c0.2-0.2,0.4-0.4,0.6-0.6l4.8-3.1   c0.1-0.1,0.3-0.2,0.4-0.3l3-3.2c0,0,0.1-0.1,0.1-0.1l3.8-3.5c0.2-0.2,0.4-0.4,0.5-0.7l2.7-6.1c0,0,0-0.1,0.1-0.1l1.9-5.3   c0,0,5.5-17.3-4.2-35l-9.7-17.6c0,0,0-0.1-0.1-0.1l-6.4-13.4c0-0.1-0.1-0.1-0.1-0.2l-2-5.9c-0.1-0.2-0.1-0.3-0.2-0.4l-2.6-4   c-0.2-0.3-0.3-0.7-0.3-1.1l0,0C170.2,204.2,169.3,203.3,168.2,203.3z"></path>
	<path class="st6" d="M162.9,191.4h-2.4c-0.8,0-1.5-0.5-1.8-1.2l-1.4-3.3c-0.1-0.2-0.2-0.5-0.2-0.8v-4.9c0-0.5,0.2-1.1,0.6-1.4   l3.1-3c0.1-0.1,0.2-0.2,0.3-0.2l3.7-2.4l28.5-17.2c0,0,8.1-5.7,13.4,0c4.3,4.6,8.6,7.7,10.1,8.7c0.4,0.2,0.8,0.4,1.2,0.3l16.7-1.2   c0.1,0,0.3,0,0.4,0l6.3,0.8c0,0,0.1,0,0.1,0c0.8,0.1,14.2,1.1,23.4,12.4c0.1,0.1,0.1,0.2,0.2,0.2c1.6,1.4,20,16.9,36.4,19.8   c17.2,2.9,20.9,3.4,20.9,3.4s32.5,4.1,43.4-6.4c0.1-0.1,0.2-0.2,0.3-0.3l3.7-2.2c0.2-0.1,0.3-0.2,0.4-0.4l3.9-4.3l7.3-7.7   c0,0,0.1-0.1,0.1-0.2c0.6-0.8,7.1-8.6,18.9-1.8c0.2,0.1,0.4,0.2,0.5,0.4c1.5,1.7,11,11.1,23.3,2.5c0.2-0.2,0.5-0.3,0.8-0.3   c1.4-0.2,5.1-0.6-0.4,4.6c-6.6,6.2-12.7,12.7-12.7,12.7L408,202c0,0-5.3,3.7-7.4,22.1c0,0.1,0,0.2,0,0.2V255v12.3l0.4,30.1   l1.2,19.2l0.8,13.2c0,0.1,0,0.1,0,0.2l1.6,9.1c0,0.1,0,0.1,0,0.2c0.1,1.2,2.1,18.4,22.8,20.8c0.2,0,0.3,0.1,0.4,0.1   c1.4,0.6,9.1,4-0.2,10.4c-7.2,5-9.4,6-10.1,6.1c-0.3,0.1-0.6,0.2-0.8,0.4l-3.5,2.9c-0.1,0.1-0.2,0.1-0.2,0.2   c-0.8,0.9-5.2,6-6.2,10.4c-1.1,4.8-4.6,7.7-4.6,7.7s-2.7,5.1-10.4,4.2c-0.1,0-0.2,0-0.2,0l-6.2,0.1c0,0-7.1,0.1-6.9,9.5   c0.1,6.6-0.3,8.6-0.6,9.1c-0.1,0.3-0.2,0.5-0.2,0.8l-0.2,4.2c0,0.1,0,0.3-0.1,0.4l-0.9,3.5c0,0.1,0,0.1-0.1,0.2l-1.1,2.9   c0,0.1,0,0.1-0.1,0.2l-1.5,5.8c0,0.1,0,0.1,0,0.2l-4.1,11.9c0,0.1-0.1,0.2-0.1,0.2l-5.2,10.5c0,0.1-0.1,0.2-0.1,0.2l-3.5,5.2   c0,0-0.1,0.1-0.1,0.1l-2.4,4.2c0,0.1-0.1,0.2-0.2,0.2c-1,1.2-8.9,10.6-23.1-0.1c-12.8-9.7-16.3-11.6-17-12   c-0.1-0.1-0.3-0.1-0.4-0.2l-9.1-7.3c0,0-0.1-0.1-0.1-0.1l-9.8-6.8c-0.1,0-0.1-0.1-0.2-0.1l-4.8-4.2c-0.1-0.1-0.2-0.1-0.3-0.2   c-1-0.6-7.3-5.1,1.3-9.5c9.3-4.8-14-15.3-14-15.3l-7.8-3.1c0,0-0.1,0-0.1-0.1l-11.8-5.7l-26.8-12.8l-10.3-4.4l-8-3.4   c0,0-0.1,0-0.1,0l-9.1-4.6l-8.1-4.4c0,0-0.1,0-0.1-0.1l-8.4-5.2c0,0-0.1-0.1-0.1-0.1l-7-5.3l-12.1-9.4c-0.1-0.1-0.2-0.1-0.2-0.2   l-5.6-6.1c0,0-6.3-6.5-2.6-29.2c0-0.2,0.1-0.4,0.2-0.6l2.4-4.7l1.8-3.3c0.1-0.1,0.1-0.2,0.2-0.4l0.9-2.8c0,0,0-0.1,0.1-0.1l0.8-2.1   c0.1-0.2,0.1-0.3,0.1-0.5l0.9-6.5c0-0.1,0.1-0.3,0.1-0.4l1.7-4.6c0.1-0.1,0.1-0.3,0.2-0.4l1.1-1.7c0.2-0.2,0.4-0.4,0.6-0.6l4.8-3.1   c0.1-0.1,0.3-0.2,0.4-0.3l3-3.2c0,0,0.1-0.1,0.1-0.1l3.8-3.5c0.2-0.2,0.4-0.4,0.5-0.7l2.7-6.1c0,0,0-0.1,0.1-0.1l1.9-5.3   c0,0,5.5-17.3-4.2-35l-9.7-17.6c0,0,0-0.1-0.1-0.1l-6.4-13.4c0-0.1-0.1-0.1-0.1-0.2l-2-5.9c-0.1-0.2-0.1-0.3-0.2-0.4l-2.6-4   c-0.2-0.3-0.3-0.7-0.3-1.1l0,0C164.9,192.3,164,191.4,162.9,191.4z"></path>
</g>
<g id="Cross">
	<polygon class="st5" points="294.8,181.5 241.6,181.5 241.6,137.4 221,137.4 221,181.5 171.5,181.5 171.5,202.1 221,202.1    221,334.8 241.6,334.8 241.6,202.1 294.8,202.1  "></polygon>
	<polygon class="st4" points="288.3,178 235.1,178 235.1,133.9 214.5,133.9 214.5,178 164.9,178 164.9,198.6 214.5,198.6    214.5,331.2 235.1,331.2 235.1,198.6 288.3,198.6  "></polygon>
</g>
<g id="Yellow_Sun">
	<g>
		<circle class="st7" cx="226" cy="324.9" r="32.5"></circle>
	</g>
	<polygon class="st8" points="224.9,335 225.1,335.1 224.8,335.1  "></polygon>
</g>
<g id="TH">
	<polygon class="st9" points="237.3,318 237.3,329.6 221.9,329.6 221.9,313.3 235,313.3 235,307.9 201.8,307.9 201.8,313.3    216.5,313.3 216.5,354.6 221.9,354.6 221.9,335 237.3,335 237.3,353.8 242.7,353.8 242.7,335 242.7,329.6 242.7,318  "></polygon>
	<g>
		<polygon class="st10" points="234.8,318 234.8,329.6 219.5,329.6 219.5,313.3 232.6,313.3 232.6,307.9 199.4,307.9 199.4,313.3     214,313.3 214,354.6 219.5,354.6 219.5,335 234.8,335 234.8,353.8 240.3,353.8 240.3,335 240.3,329.6 240.3,318   "></polygon>
	</g>
</g>
<g id="Rays">
	<path class="st10" d="M459.7,335.1v-5.2H258.1c0.2-1.6,0.4-3.2,0.4-4.9c0-3-0.4-5.9-1.2-8.7l197.2-113.9l-2.6-4.5L255.5,311.3   c-5.2-11.1-16.4-18.9-29.5-18.9c-13.1,0-24.4,7.7-29.5,18.9l-76.3-47l-2.7,4.4l77.2,47.6c-0.8,2.8-1.2,5.7-1.2,8.6   c0,1.7,0.1,3.3,0.4,4.9H105v5.2h90.1c1,3.1,2.5,6,4.3,8.6L150,372.2l2.6,4.5l50.1-29c2.1,2.2,4.6,4,7.2,5.5L173.5,430l4.7,2.2   l36.6-76.7c2.3,0.9,4.8,1.5,7.4,1.8v61h5.2v-60.8c2.3-0.1,4.6-0.4,6.8-1l43.3,75l4.5-2.6l-42.8-74.1c3.2-1.4,6.1-3.3,8.7-5.6   l175.4,108.1l2.7-4.4L251.4,345.2c2.4-3,4.3-6.4,5.5-10.1H459.7z M247.1,342.6c-1.1,1.4-2.4,2.6-3.8,3.8   c-4.7,3.8-10.8,6.2-17.3,6.2c-3.2,0-6.2-0.5-9-1.5c-1.7-0.6-3.2-1.3-4.7-2.2c-1.8-1-3.4-2.2-4.9-3.6c-1.3-1.2-2.5-2.5-3.5-4   c-1.4-1.9-2.5-3.9-3.4-6.1c-0.7-1.7-1.2-3.4-1.5-5.2c-0.3-1.6-0.5-3.2-0.5-4.9c0-2,0.2-4,0.6-5.9c0.4-1.8,0.9-3.5,1.6-5.1   c4.2-9.7,14-16.6,25.2-16.6c11.2,0,20.9,6.8,25.2,16.4c0.7,1.6,1.3,3.3,1.7,5c0.5,2,0.7,4,0.7,6.1c0,1.7-0.2,3.3-0.5,4.9   c-0.3,1.8-0.8,3.5-1.5,5.2C250.5,337.8,249,340.3,247.1,342.6z"></path>
	<path class="st9" d="M461.7,339.8v-5.2H260.1c0.2-1.6,0.4-3.2,0.4-4.9c0-3-0.4-5.9-1.2-8.7l197.2-113.9l-2.6-4.5L257.5,316   c-5.2-11.1-16.4-18.9-29.5-18.9c-13.1,0-24.4,7.7-29.5,18.9l-76.3-47l-2.7,4.4l77.2,47.6c-0.8,2.8-1.2,5.7-1.2,8.6   c0,1.7,0.1,3.3,0.4,4.9h-88.9v5.2H197c1,3.1,2.5,6,4.3,8.6L152,376.9l2.6,4.5l50.1-29c2.1,2.2,4.6,4,7.2,5.5l-36.6,76.7l4.7,2.2   l36.6-76.7c2.3,0.9,4.8,1.5,7.4,1.8v61h5.2v-60.8c2.3-0.1,4.6-0.4,6.8-1l43.3,75l4.5-2.6l-42.8-74.1c3.2-1.4,6.1-3.3,8.7-5.6   l175.4,108.1l2.7-4.4L253.4,349.9c2.4-3,4.3-6.4,5.5-10.1H461.7z M249.1,347.2c-1.1,1.4-2.4,2.6-3.8,3.8   c-4.7,3.8-10.8,6.2-17.3,6.2c-3.2,0-6.2-0.5-9-1.5c-1.7-0.6-3.2-1.3-4.7-2.2c-1.8-1-3.4-2.2-4.9-3.6c-1.3-1.2-2.5-2.5-3.5-4   c-1.4-1.9-2.5-3.9-3.4-6.1c-0.7-1.7-1.2-3.4-1.5-5.2c-0.3-1.6-0.5-3.2-0.5-4.9c0-2,0.2-4,0.6-5.9c0.4-1.8,0.9-3.5,1.6-5.1   c4.2-9.7,14-16.6,25.2-16.6c11.2,0,20.9,6.8,25.2,16.4c0.7,1.6,1.3,3.3,1.7,5c0.5,2,0.7,4,0.7,6.1c0,1.7-0.2,3.3-0.5,4.9   c-0.3,1.8-0.8,3.5-1.5,5.2C252.4,342.5,250.9,345,249.1,347.2z"></path>
</g>
</svg>
